M48
;Layer_Color=9474304
;FILE_FORMAT=4:4
METRIC,LZ
;TYPE=PLATED
T1F00S00C0.3000
T3F00S00C1.0000
T4F00S00C1.1000
T5F00S00C1.5000
T6F00S00C3.2000
;TYPE=NON_PLATED
T7F00S00C3.2000
%
T01
X0047875Y00141
X005055Y002135
X00531899Y00212
X0052875Y002575
X0051375Y0026875
X00496Y00258
Y0024075
X005535Y0024175
X00577Y00234
X0056975Y0026575
X0056175
X00595Y0015625
X0061925Y001485
X00443Y00148
X0036675Y0016525
X0036725Y0008725
X0035443Y0008382
X00319072Y00088322
X003015Y0008125
X002675Y00077
X0026475Y00065
X00272Y00164
X00269118Y00247868
X00277967Y0024625
X002555Y00253
X00180321Y00247
X0018Y00235
X001805Y00203
X0017825Y00166
X0015275Y0022725
X00124Y0022
X001215Y0020625
X0009575Y0018
X00087Y0015275
X00095Y0011
X0015025Y00269
X0040625Y00241
X003975Y0007725
X000575Y000875
Y000585
X000675Y000405
X00027Y000905
X00064Y00215
Y00229
X0001475Y00318
X00022Y00392
Y00401
Y0041
Y00418
Y00426
Y00434
Y00441
X0001325Y0048275
X00028Y0051825
X0006875Y004155
X0006175Y0038075
X00045496Y00370754
X00088754Y0036875
Y0035825
X00094595Y0037475
X0011875Y003825
X00110483Y00397812
X0008475Y004165
X00081Y00467
X00123Y00466
X0015975Y004195
X0022425Y0042675
X00228Y0043975
X002185Y0044
X00217768Y004595
X00276Y0045925
X002955Y004375
X003185Y0042525
X00319Y00382
X0029Y00401341
X00273Y00402
X0025475Y004115
X00245Y004065
X00237Y00375
Y00367
X0023025Y0032925
X00232Y00278
X0021825Y0027725
X001835Y00303
X00124333Y00292031
X00101009Y00303754
X00101Y00311754
X00101Y00320031
Y00339188
X00108198Y00335358
X00101Y00272375
X0008475Y0027225
X0027125Y00289
X0034075Y0032
X0038725Y00303
X004335Y00293
X00433Y0032275
X00432Y003325
X004155Y003395
Y0039375
X004055Y0039925
X00385Y0039475
X0039675Y0043275
X0039625Y0045975
X00407891Y00460787
X00408Y00485
X00433Y004675
X0037725Y0046725
X00353Y0045
X0036075Y0043775
X002995Y004805
X004825Y004065
X00507Y0040625
X0050425Y00321
X0049425Y00314
X0052125Y0032025
X0053825Y0032075
X0055425Y0032775
X0056175Y0031925
X0056975
X0057775Y0028475
X0060475
X00606Y0031138
X0060125Y0036525
X00578Y00379
X0064Y004115
X00632Y00454
X00539Y00285
X00491802Y00274
T03
X0045625Y0042225
Y0046725
X0052125
X0054725
Y0042225
X0052125
X0061225
Y0046725
T04
X00508Y000254
X005334
X005588
X005842
X006096
X00635
X0062065Y0012573
X0059525
X0056985
X0054445
X0051905
X0049365
Y0020193
X0051905
X0054445
X0056985
X0059525
X0062065
X0066975Y00224
Y002494
X0046825Y0020193
X0044285
X0041745
X0039205
X0036665
X0034125
X0031585
X0029045
Y0012573
X0031585
X0034125
X0036665
X0039205
X0041745
X0044285
X0046825
X004572Y000254
X004318
X004064
X00381
X003556
X003302
X003048
X002794
X002489Y00126
Y001514
X002235
Y00126
X000634Y000135
X00038
X000126
X0001675Y0022795
X0004215
Y0025335
X0001675
Y0027875
X0004215
X0004175Y0033035
Y0035575
X0006715
Y0033035
X0001635
Y0035575
X0018796Y00508
X0021336
X0023876
X0026416
X0028956
X0031496
X0034036
X0036576
X0039116
X0041656
X004572
X004826
X00508
X005334
X005588
X005842
X006096
X00635
X0067125Y0046365
Y0043825
Y0041285
X0066975Y003002
Y002748
T05
X00028Y0013925
Y0018325
T06
X006604Y000762
X001397Y000254
X006604Y003556
T07
X001524Y00508
M30
