G04*
G04 #@! TF.GenerationSoftware,Altium Limited,Altium Designer,23.2.1 (34)*
G04*
G04 Layer_Color=8388736*
%FSLAX44Y44*%
%MOMM*%
G71*
G04*
G04 #@! TF.SameCoordinates,4F847AC2-02D0-4AD0-BDAF-0AB3E8A313E0*
G04*
G04*
G04 #@! TF.FilePolarity,Negative*
G04*
G01*
G75*
%ADD30R,1.9000X1.9000*%
%ADD36R,1.5000X1.1000*%
%ADD37R,1.0000X1.0000*%
%ADD38R,1.5000X0.9000*%
%ADD39R,0.7500X1.2000*%
%ADD40R,1.1000X1.5000*%
%ADD41R,2.4000X3.7000*%
%ADD42R,2.4000X0.8000*%
%ADD43R,1.0000X1.0000*%
%ADD44R,0.9000X1.5000*%
%ADD45R,0.6700X1.6200*%
%ADD46R,1.6200X0.6700*%
%ADD47R,2.7000X2.8000*%
%ADD48R,1.2000X0.7500*%
%ADD49R,1.8000X3.2000*%
%ADD50C,3.0480*%
%ADD51R,2.2000X2.9000*%
%ADD52R,2.1000X2.1000*%
%ADD53R,1.6000X1.8000*%
%ADD54R,1.4500X0.5000*%
%ADD55R,0.8858X0.7588*%
%ADD56R,0.7588X0.8858*%
%ADD57R,0.8000X1.1000*%
%ADD58C,1.9000*%
%ADD59R,1.9000X1.9000*%
%ADD60C,4.2000*%
%ADD61O,1.8000X2.2000*%
%ADD62R,1.8000X2.2000*%
%ADD63O,2.2000X1.8000*%
%ADD64R,2.2000X1.8000*%
%ADD65R,2.1000X2.1000*%
%ADD66C,2.1000*%
%ADD67C,3.4000*%
%ADD68C,7.6000*%
G04:AMPARAMS|DCode=69|XSize=2.2mm|YSize=1.4mm|CornerRadius=0.46mm|HoleSize=0mm|Usage=FLASHONLY|Rotation=0.000|XOffset=0mm|YOffset=0mm|HoleType=Round|Shape=RoundedRectangle|*
%AMROUNDEDRECTD69*
21,1,2.2000,0.4800,0,0,0.0*
21,1,1.2800,1.4000,0,0,0.0*
1,1,0.9200,0.6400,-0.2400*
1,1,0.9200,-0.6400,-0.2400*
1,1,0.9200,-0.6400,0.2400*
1,1,0.9200,0.6400,0.2400*
%
%ADD69ROUNDEDRECTD69*%
D30*
X16750Y278750D02*
D03*
D36*
X62750Y240250D02*
D03*
Y259250D02*
D03*
X95000Y137250D02*
D03*
Y118250D02*
D03*
X95000Y171500D02*
D03*
Y152500D02*
D03*
X505500Y302500D02*
D03*
Y283500D02*
D03*
Y249500D02*
D03*
Y268500D02*
D03*
X301750Y45750D02*
D03*
Y64750D02*
D03*
X320000Y45750D02*
D03*
Y64750D02*
D03*
X357500Y45750D02*
D03*
Y64750D02*
D03*
X375750Y45750D02*
D03*
Y64750D02*
D03*
X433000Y448500D02*
D03*
Y467500D02*
D03*
X379250Y448500D02*
D03*
Y467500D02*
D03*
X355000Y468500D02*
D03*
Y449500D02*
D03*
X222250Y308250D02*
D03*
Y289250D02*
D03*
X258250Y308250D02*
D03*
Y289250D02*
D03*
X240250Y308250D02*
D03*
Y289250D02*
D03*
X301000Y449000D02*
D03*
Y468000D02*
D03*
X177750Y235500D02*
D03*
Y216500D02*
D03*
X124000Y235500D02*
D03*
Y216500D02*
D03*
X264500Y468500D02*
D03*
Y487500D02*
D03*
X451500Y283500D02*
D03*
Y302500D02*
D03*
X469750Y283500D02*
D03*
Y302500D02*
D03*
X238750Y487750D02*
D03*
Y468750D02*
D03*
X435000Y104250D02*
D03*
Y85250D02*
D03*
X417000Y104250D02*
D03*
Y85250D02*
D03*
X453000Y104250D02*
D03*
Y85250D02*
D03*
X372000Y282250D02*
D03*
Y301250D02*
D03*
X433500Y283500D02*
D03*
Y302500D02*
D03*
X258250Y323000D02*
D03*
Y342000D02*
D03*
X487500Y283500D02*
D03*
Y302500D02*
D03*
X399000Y104250D02*
D03*
Y85250D02*
D03*
D37*
X263000Y389750D02*
D03*
Y373750D02*
D03*
X171500Y380250D02*
D03*
Y364250D02*
D03*
X189250Y380250D02*
D03*
Y364250D02*
D03*
D38*
X282000Y374000D02*
D03*
Y393000D02*
D03*
X106250Y237250D02*
D03*
Y218250D02*
D03*
X620750Y240750D02*
D03*
Y221750D02*
D03*
X523500Y304250D02*
D03*
Y285250D02*
D03*
X541500Y304250D02*
D03*
Y285250D02*
D03*
X541750Y255000D02*
D03*
Y274000D02*
D03*
X415000Y450250D02*
D03*
Y469250D02*
D03*
X379250Y435250D02*
D03*
Y416250D02*
D03*
X397250Y450250D02*
D03*
Y469250D02*
D03*
X153750Y380500D02*
D03*
Y361500D02*
D03*
X171250Y411000D02*
D03*
Y392000D02*
D03*
X189000Y411000D02*
D03*
Y392000D02*
D03*
X337000Y450750D02*
D03*
Y469750D02*
D03*
X319000Y450750D02*
D03*
Y469750D02*
D03*
X135750Y380500D02*
D03*
Y361500D02*
D03*
X159750Y237250D02*
D03*
Y218250D02*
D03*
X142000Y237250D02*
D03*
Y218250D02*
D03*
X67750Y381250D02*
D03*
Y400250D02*
D03*
X381000Y87000D02*
D03*
Y106000D02*
D03*
D39*
X263000Y405750D02*
D03*
X282000D02*
D03*
X263000Y432750D02*
D03*
X272500D02*
D03*
X282000D02*
D03*
X415750Y432750D02*
D03*
X406250D02*
D03*
X396750D02*
D03*
X415750Y405750D02*
D03*
X396750D02*
D03*
X337250Y433250D02*
D03*
X327750D02*
D03*
X318250D02*
D03*
X337250Y406250D02*
D03*
X318250D02*
D03*
D40*
X43000Y308750D02*
D03*
X24000D02*
D03*
X259250Y198000D02*
D03*
X240250D02*
D03*
X194250D02*
D03*
X213250D02*
D03*
X651000Y467500D02*
D03*
X632000D02*
D03*
D41*
X179250Y144000D02*
D03*
D42*
X117250Y118600D02*
D03*
Y131300D02*
D03*
Y144000D02*
D03*
Y156700D02*
D03*
Y169400D02*
D03*
D43*
X35693Y102500D02*
D03*
X19693D02*
D03*
D44*
X17000Y85750D02*
D03*
X36000D02*
D03*
X38500Y58500D02*
D03*
X57500D02*
D03*
Y40500D02*
D03*
X38500D02*
D03*
X36000D02*
D03*
X17000D02*
D03*
X396000Y230250D02*
D03*
X415000D02*
D03*
X236750Y252000D02*
D03*
X217750D02*
D03*
X230250Y359500D02*
D03*
X211250D02*
D03*
X230250Y341750D02*
D03*
X211250D02*
D03*
X652750Y409000D02*
D03*
X633750D02*
D03*
D45*
X182000Y258000D02*
D03*
X174000D02*
D03*
X166000D02*
D03*
X158000D02*
D03*
X150000D02*
D03*
X142000D02*
D03*
X134000D02*
D03*
X126000D02*
D03*
Y342000D02*
D03*
X134000D02*
D03*
X142000D02*
D03*
X150000D02*
D03*
X158000D02*
D03*
X166000D02*
D03*
X174000D02*
D03*
X182000D02*
D03*
D46*
X112000Y272000D02*
D03*
Y280000D02*
D03*
Y288000D02*
D03*
Y296000D02*
D03*
Y304000D02*
D03*
Y312000D02*
D03*
Y320000D02*
D03*
Y328000D02*
D03*
X196000D02*
D03*
Y320000D02*
D03*
Y312000D02*
D03*
Y304000D02*
D03*
Y296000D02*
D03*
Y288000D02*
D03*
Y280000D02*
D03*
Y272000D02*
D03*
D47*
X377750Y257250D02*
D03*
X426750D02*
D03*
X251250Y225000D02*
D03*
X202250D02*
D03*
D48*
X577750Y303750D02*
D03*
Y294250D02*
D03*
Y284750D02*
D03*
X604750Y303750D02*
D03*
Y284750D02*
D03*
D49*
X28000Y477250D02*
D03*
Y518250D02*
D03*
X83250Y477000D02*
D03*
Y518000D02*
D03*
D50*
X139500Y447750D02*
D03*
X668500Y509250D02*
D03*
X669500Y19000D02*
D03*
X93000Y16500D02*
D03*
D51*
X72000Y440000D02*
D03*
X104000D02*
D03*
D52*
X22625Y404000D02*
D03*
Y428000D02*
D03*
D53*
X47125Y384000D02*
D03*
Y448000D02*
D03*
D54*
X49375Y403000D02*
D03*
Y409500D02*
D03*
Y416000D02*
D03*
Y422500D02*
D03*
Y429000D02*
D03*
D55*
X557500Y303942D02*
D03*
Y279558D02*
D03*
D56*
X358442Y483000D02*
D03*
X334058D02*
D03*
D57*
X180250Y201250D02*
D03*
X165250D02*
D03*
X121500D02*
D03*
X136500D02*
D03*
D58*
X42150Y227950D02*
D03*
Y253350D02*
D03*
Y278750D02*
D03*
X16750Y227950D02*
D03*
Y253350D02*
D03*
X223500Y151400D02*
D03*
X248900Y126000D02*
D03*
X223500D02*
D03*
X41750Y355750D02*
D03*
X16350D02*
D03*
X67150Y330350D02*
D03*
X41750D02*
D03*
X16350D02*
D03*
D59*
X248900Y151400D02*
D03*
X67150Y355750D02*
D03*
D60*
X28000Y139250D02*
D03*
Y183250D02*
D03*
D61*
X63400Y13500D02*
D03*
X38000D02*
D03*
X187960Y508000D02*
D03*
X213360D02*
D03*
X238760D02*
D03*
X264160D02*
D03*
X289560D02*
D03*
X314960D02*
D03*
X340360D02*
D03*
X365760D02*
D03*
X391160D02*
D03*
X457200Y25400D02*
D03*
X431800D02*
D03*
X406400D02*
D03*
X381000D02*
D03*
X355600D02*
D03*
X330200D02*
D03*
X304800D02*
D03*
X609600Y508000D02*
D03*
X584200D02*
D03*
X558800D02*
D03*
X533400D02*
D03*
X508000D02*
D03*
X482600D02*
D03*
X457200D02*
D03*
X635000Y25400D02*
D03*
X609600D02*
D03*
X584200D02*
D03*
X558800D02*
D03*
X533400D02*
D03*
X595250Y201930D02*
D03*
X569850D02*
D03*
X544450D02*
D03*
X519050D02*
D03*
X493650D02*
D03*
X468250D02*
D03*
X442850D02*
D03*
X417450D02*
D03*
X392050D02*
D03*
X366650D02*
D03*
X341250D02*
D03*
X315850D02*
D03*
X290450D02*
D03*
X620650Y125730D02*
D03*
X595250D02*
D03*
X569850D02*
D03*
X544450D02*
D03*
X519050D02*
D03*
X493650D02*
D03*
X468250D02*
D03*
X442850D02*
D03*
X417450D02*
D03*
X392050D02*
D03*
X366650D02*
D03*
X341250D02*
D03*
X315850D02*
D03*
X290450D02*
D03*
D62*
X12600Y13500D02*
D03*
X416560Y508000D02*
D03*
X279400Y25400D02*
D03*
X635000Y508000D02*
D03*
X508000Y25400D02*
D03*
X620650Y201930D02*
D03*
D63*
X669750Y224000D02*
D03*
Y249400D02*
D03*
Y274800D02*
D03*
X671250Y412850D02*
D03*
Y438250D02*
D03*
D64*
X669750Y300200D02*
D03*
X671250Y463650D02*
D03*
D65*
X612250Y422250D02*
D03*
X456250Y467250D02*
D03*
D66*
X547250Y422250D02*
D03*
Y467250D02*
D03*
X612250D02*
D03*
X456250Y422250D02*
D03*
X521250D02*
D03*
Y467250D02*
D03*
D67*
X152400Y508000D02*
D03*
D68*
X139700Y25400D02*
D03*
X660400Y76200D02*
D03*
Y355600D02*
D03*
D69*
X22625Y449000D02*
D03*
Y383000D02*
D03*
M02*
