G04*
G04 #@! TF.GenerationSoftware,Altium Limited,Altium Designer,23.2.1 (34)*
G04*
G04 Layer_Physical_Order=2*
G04 Layer_Color=16711680*
%FSLAX44Y44*%
%MOMM*%
G71*
G04*
G04 #@! TF.SameCoordinates,4F847AC2-02D0-4AD0-BDAF-0AB3E8A313E0*
G04*
G04*
G04 #@! TF.FilePolarity,Positive*
G04*
G01*
G75*
%ADD11C,0.2000*%
%ADD12C,0.3000*%
%ADD14C,0.4000*%
%ADD58C,1.9000*%
%ADD59R,1.9000X1.9000*%
%ADD71C,0.6000*%
%ADD73C,1.7000*%
%ADD74R,1.7000X1.7000*%
%ADD75R,1.7000X1.7000*%
%ADD76C,4.0000*%
%ADD77O,1.6000X2.0000*%
%ADD78R,1.6000X2.0000*%
%ADD79O,2.0000X1.6000*%
%ADD80R,2.0000X1.6000*%
%ADD81C,3.2000*%
%ADD82C,7.4000*%
G04:AMPARAMS|DCode=83|XSize=2mm|YSize=1.2mm|CornerRadius=0.36mm|HoleSize=0mm|Usage=FLASHONLY|Rotation=0.000|XOffset=0mm|YOffset=0mm|HoleType=Round|Shape=RoundedRectangle|*
%AMROUNDEDRECTD83*
21,1,2.0000,0.4800,0,0,0.0*
21,1,1.2800,1.2000,0,0,0.0*
1,1,0.7200,0.6400,-0.2400*
1,1,0.7200,-0.6400,-0.2400*
1,1,0.7200,-0.6400,0.2400*
1,1,0.7200,0.6400,0.2400*
%
%ADD83ROUNDEDRECTD83*%
%ADD84C,0.6000*%
G36*
X687000Y532000D02*
Y1652D01*
X685730Y1270D01*
X685000Y2000D01*
X683000Y0D01*
X456920D01*
X456394Y1270D01*
X471084Y15960D01*
X471968Y17283D01*
X472278Y18844D01*
X472278Y18844D01*
Y32511D01*
X536334Y96566D01*
X537218Y97889D01*
X537528Y99450D01*
X537528Y99450D01*
Y104729D01*
X541451Y108652D01*
X549006D01*
X549006Y108652D01*
X550567Y108962D01*
X551890Y109846D01*
X558334Y116290D01*
X559190Y117572D01*
X559324Y117637D01*
X560102Y117815D01*
X560547Y117785D01*
X562005Y115885D01*
X564302Y114122D01*
X566978Y113013D01*
X569850Y112635D01*
X572722Y113013D01*
X575397Y114122D01*
X577695Y115885D01*
X579459Y118182D01*
X580567Y120858D01*
X580945Y123730D01*
Y127730D01*
X580567Y130602D01*
X579459Y133278D01*
X577695Y135575D01*
X575397Y137338D01*
X572722Y138447D01*
X569850Y138825D01*
X566978Y138447D01*
X566555Y138272D01*
X565836Y139348D01*
X595854Y169366D01*
X595854Y169366D01*
X615418Y188930D01*
X631650D01*
Y214930D01*
X609650D01*
Y194698D01*
X590086Y175134D01*
X552566Y137614D01*
X552281Y137187D01*
X550602Y136875D01*
X549997Y137338D01*
X547322Y138447D01*
X544450Y138825D01*
X541578Y138447D01*
X538903Y137338D01*
X536605Y135575D01*
X534841Y133278D01*
X533733Y130602D01*
X533355Y127730D01*
Y123730D01*
X533733Y120858D01*
X534841Y118182D01*
X536093Y116551D01*
X536605Y115885D01*
X536007Y114743D01*
X530566Y109302D01*
X529682Y107979D01*
X529372Y106418D01*
X529372Y106418D01*
Y101139D01*
X465316Y37084D01*
X465119Y36789D01*
X463402Y36506D01*
X462747Y37009D01*
X460072Y38117D01*
X457200Y38495D01*
X454328Y38117D01*
X451652Y37009D01*
X449355Y35245D01*
X447592Y32947D01*
X446483Y30272D01*
X446105Y27400D01*
Y23400D01*
X446483Y20528D01*
X447592Y17852D01*
X449355Y15555D01*
X451652Y13792D01*
X454328Y12683D01*
X454622Y12644D01*
X455031Y11442D01*
X451052Y7463D01*
X437385D01*
X437385Y7463D01*
X436707Y7328D01*
X348861D01*
X339170Y17020D01*
X339809Y17852D01*
X340917Y20528D01*
X341295Y23400D01*
Y27400D01*
X340917Y30272D01*
X339809Y32947D01*
X338045Y35245D01*
X335747Y37009D01*
X333072Y38117D01*
X330200Y38495D01*
X327328Y38117D01*
X324652Y37009D01*
X322355Y35245D01*
X320592Y32947D01*
X319483Y30272D01*
X319105Y27400D01*
Y23400D01*
X319483Y20528D01*
X320592Y17852D01*
X322355Y15555D01*
X324652Y13792D01*
X327328Y12683D01*
X330200Y12305D01*
X332099Y12555D01*
X343384Y1270D01*
X342858Y0D01*
X76198D01*
X75697Y564D01*
X75553Y774D01*
X75437Y1062D01*
X75409Y1270D01*
X75461Y1661D01*
X75559Y2152D01*
Y61733D01*
X98267Y84441D01*
X100250D01*
X101421Y84674D01*
X102413Y85337D01*
X103076Y86330D01*
X103309Y87500D01*
Y117716D01*
X103076Y118887D01*
X102413Y119879D01*
X101421Y120542D01*
X100250Y120775D01*
X89500D01*
X88329Y120542D01*
X87337Y119879D01*
X86674Y118887D01*
X86441Y117716D01*
X86441Y95517D01*
X81761Y90836D01*
X81760Y90836D01*
X62848Y71924D01*
X61578Y72450D01*
Y83093D01*
X62586Y84101D01*
X63500Y86306D01*
Y88694D01*
X62586Y90899D01*
X60899Y92587D01*
X58693Y93500D01*
X56307D01*
X54101Y92587D01*
X52413Y90899D01*
X51500Y88694D01*
Y86306D01*
X52413Y84101D01*
X53422Y83093D01*
Y62907D01*
X52413Y61899D01*
X51500Y59693D01*
Y57307D01*
X52413Y55101D01*
X54101Y53414D01*
X56307Y52500D01*
X58693D01*
X59671Y52905D01*
X60941Y52056D01*
Y29809D01*
X54103D01*
X52933Y29576D01*
X51941Y28913D01*
X51278Y27920D01*
X51174Y27671D01*
X50941Y26500D01*
Y2000D01*
X51086Y1270D01*
X50317Y0D01*
X42299D01*
X42047Y1270D01*
X43547Y1892D01*
X45845Y3655D01*
X47608Y5953D01*
X48717Y8628D01*
X49095Y11500D01*
Y15500D01*
X48717Y18372D01*
X47608Y21047D01*
X45845Y23345D01*
X43547Y25108D01*
X40872Y26217D01*
X38000Y26595D01*
X35128Y26217D01*
X32453Y25108D01*
X30155Y23345D01*
X28391Y21047D01*
X27283Y18372D01*
X26905Y15500D01*
Y11500D01*
X27283Y8628D01*
X28391Y5953D01*
X30155Y3655D01*
X32453Y1892D01*
X33953Y1270D01*
X33700Y0D01*
X24663D01*
X23600Y500D01*
Y26500D01*
X23059D01*
Y94691D01*
X50516D01*
X50578Y94704D01*
X50640Y94694D01*
X51161Y94819D01*
X51687Y94924D01*
X51739Y94959D01*
X51800Y94974D01*
X52233Y95289D01*
X52679Y95587D01*
X52714Y95639D01*
X52765Y95676D01*
X82060Y127441D01*
X174941D01*
X174941Y89750D01*
X175174Y88580D01*
X175837Y87587D01*
X176829Y86924D01*
X178000Y86691D01*
X203566Y86691D01*
X203861Y86632D01*
X220466D01*
X254424Y52674D01*
X256409Y51348D01*
X258750Y50882D01*
X355466D01*
X372264Y34084D01*
X371391Y32947D01*
X370283Y30272D01*
X369905Y27400D01*
Y23400D01*
X370283Y20528D01*
X371391Y17852D01*
X373155Y15555D01*
X375452Y13792D01*
X378128Y12683D01*
X381000Y12305D01*
X383872Y12683D01*
X386548Y13792D01*
X388845Y15555D01*
X390608Y17852D01*
X391717Y20528D01*
X392095Y23400D01*
Y27400D01*
X391717Y30272D01*
X390608Y32947D01*
X388845Y35245D01*
X386548Y37009D01*
X384846Y37713D01*
X384739Y38254D01*
X383412Y40239D01*
X364456Y59195D01*
X364943Y60368D01*
X401244D01*
X401244Y60368D01*
X402805Y60679D01*
X404128Y61563D01*
X458234Y115668D01*
X458234Y115668D01*
X459118Y116992D01*
X459428Y118552D01*
X459428Y118553D01*
Y130818D01*
X465532Y136922D01*
X474343D01*
X475351Y135913D01*
X477556Y135000D01*
X479944D01*
X482149Y135913D01*
X483837Y137601D01*
X484750Y139806D01*
Y142193D01*
X483837Y144399D01*
X482149Y146087D01*
X479944Y147000D01*
X477556D01*
X475351Y146087D01*
X474343Y145078D01*
X463843D01*
X463842Y145078D01*
X462282Y144768D01*
X460959Y143884D01*
X460958Y143884D01*
X452466Y135392D01*
X452313Y135163D01*
X451044Y135121D01*
X450695Y135575D01*
X448397Y137338D01*
X445722Y138447D01*
X442850Y138825D01*
X439978Y138447D01*
X437303Y137338D01*
X435005Y135575D01*
X433242Y133278D01*
X432133Y130602D01*
X431755Y127730D01*
Y123730D01*
X432133Y120858D01*
X433242Y118182D01*
X435005Y115885D01*
X437303Y114122D01*
X439978Y113013D01*
X441983Y112749D01*
X442438Y111408D01*
X400195Y69165D01*
X399918Y69220D01*
X399500Y70599D01*
X401826Y72924D01*
X402160Y73425D01*
X402587Y73851D01*
X402817Y74408D01*
X403152Y74909D01*
X403269Y75500D01*
X403500Y76056D01*
Y76659D01*
X403618Y77250D01*
X403500Y77841D01*
Y78443D01*
X403269Y79000D01*
X403152Y79591D01*
X402817Y80092D01*
X402587Y80649D01*
X402160Y81075D01*
X401826Y81576D01*
X401325Y81910D01*
X400899Y82337D01*
X400342Y82567D01*
X399841Y82902D01*
X399250Y83019D01*
X398694Y83250D01*
X398091D01*
X397500Y83368D01*
X396909Y83250D01*
X396306D01*
X395750Y83019D01*
X395159Y82902D01*
X394658Y82567D01*
X394101Y82337D01*
X393675Y81910D01*
X393174Y81576D01*
X388163Y76564D01*
X276587D01*
X271826Y81326D01*
X271325Y81660D01*
X270899Y82087D01*
X270342Y82317D01*
X269841Y82652D01*
X269250Y82769D01*
X268694Y83000D01*
X268091D01*
X267500Y83118D01*
X266909Y83000D01*
X266306D01*
X265750Y82769D01*
X265159Y82652D01*
X264658Y82317D01*
X264101Y82087D01*
X263675Y81660D01*
X263174Y81326D01*
X262840Y80825D01*
X262413Y80399D01*
X262183Y79842D01*
X261848Y79341D01*
X261731Y78750D01*
X261500Y78193D01*
Y77591D01*
X261383Y77000D01*
X261500Y76409D01*
Y75806D01*
X261731Y75250D01*
X261848Y74659D01*
X262183Y74158D01*
X262413Y73601D01*
X262840Y73175D01*
X263174Y72674D01*
X263675Y72173D01*
X263200Y70852D01*
X261351Y70086D01*
X259663Y68399D01*
X259117Y67080D01*
X257619Y66782D01*
X227326Y97076D01*
X225341Y98402D01*
X223000Y98868D01*
X206809D01*
Y118514D01*
X207982Y119000D01*
X218331Y108652D01*
X221136Y105846D01*
X221136Y105846D01*
X222459Y104962D01*
X224020Y104652D01*
X224020Y104652D01*
X296974D01*
X313072Y88554D01*
Y87128D01*
X313985Y84923D01*
X315673Y83235D01*
X317878Y82322D01*
X320265D01*
X322470Y83235D01*
X324158Y84923D01*
X325072Y87128D01*
Y89515D01*
X324158Y91720D01*
X322470Y93408D01*
X320265Y94322D01*
X318839D01*
X305683Y107478D01*
X306169Y108652D01*
X340081D01*
X361250Y87482D01*
Y86056D01*
X362163Y83851D01*
X363851Y82163D01*
X366057Y81250D01*
X368443D01*
X370649Y82163D01*
X372337Y83851D01*
X373250Y86056D01*
Y88443D01*
X372337Y90649D01*
X370649Y92337D01*
X368443Y93250D01*
X367018D01*
X347242Y113026D01*
X347445Y114619D01*
X349095Y115885D01*
X350858Y118182D01*
X351967Y120858D01*
X352345Y123730D01*
Y127730D01*
X351967Y130602D01*
X350858Y133278D01*
X349095Y135575D01*
X346797Y137338D01*
X344122Y138447D01*
X341250Y138825D01*
X338378Y138447D01*
X335703Y137338D01*
X333405Y135575D01*
X331642Y133278D01*
X330533Y130602D01*
X330155Y127730D01*
Y123730D01*
X330533Y120858D01*
X331642Y118182D01*
X331822Y117947D01*
X331260Y116808D01*
X325840D01*
X325278Y117947D01*
X325458Y118182D01*
X326567Y120858D01*
X326945Y123730D01*
Y127730D01*
X326567Y130602D01*
X325458Y133278D01*
X323695Y135575D01*
X321398Y137338D01*
X318722Y138447D01*
X315850Y138825D01*
X312978Y138447D01*
X310303Y137338D01*
X308005Y135575D01*
X306241Y133278D01*
X305133Y130602D01*
X304755Y127730D01*
Y123730D01*
X305133Y120858D01*
X306241Y118182D01*
X306422Y117947D01*
X305860Y116808D01*
X300440D01*
X299878Y117947D01*
X300058Y118182D01*
X301167Y120858D01*
X301545Y123730D01*
Y127730D01*
X301167Y130602D01*
X300058Y133278D01*
X298295Y135575D01*
X295998Y137338D01*
X293322Y138447D01*
X290450Y138825D01*
X287578Y138447D01*
X284902Y137338D01*
X282605Y135575D01*
X280842Y133278D01*
X279733Y130602D01*
X279355Y127730D01*
Y123730D01*
X279733Y120858D01*
X280460Y119104D01*
X279383Y118385D01*
X265478Y132289D01*
Y159934D01*
X266748Y160470D01*
X267285Y159947D01*
Y159718D01*
X267673Y157767D01*
X268778Y156113D01*
X281496Y143395D01*
X283150Y142290D01*
X285100Y141902D01*
X441459D01*
X441951Y142000D01*
X444193D01*
X446399Y142914D01*
X448087Y144601D01*
X449000Y146806D01*
Y149193D01*
X448087Y151399D01*
X446399Y153087D01*
X444193Y154000D01*
X441806D01*
X439601Y153087D01*
X438613Y152098D01*
X287212D01*
X277562Y161748D01*
X278000Y162806D01*
Y165194D01*
X277087Y167399D01*
X275399Y169087D01*
X273193Y170000D01*
X270807D01*
X268601Y169087D01*
X266913Y167399D01*
X266748Y167000D01*
X265478Y167253D01*
Y235595D01*
X266652Y236081D01*
X267116Y235616D01*
X267116Y235616D01*
X268439Y234732D01*
X270000Y234422D01*
X275561D01*
X294413Y215569D01*
X293693Y214493D01*
X293322Y214647D01*
X290450Y215025D01*
X287578Y214647D01*
X284902Y213538D01*
X282605Y211775D01*
X280842Y209478D01*
X279733Y206802D01*
X279355Y203930D01*
Y199930D01*
X279733Y197058D01*
X280842Y194382D01*
X282605Y192085D01*
X284902Y190322D01*
X287578Y189213D01*
X290450Y188835D01*
X293322Y189213D01*
X295998Y190322D01*
X298295Y192085D01*
X298567Y192439D01*
X298676Y192436D01*
X299847Y192021D01*
X300082Y190839D01*
X300966Y189516D01*
X328116Y162366D01*
X329439Y161482D01*
X331000Y161172D01*
X331000Y161172D01*
X362343D01*
X363351Y160163D01*
X365556Y159250D01*
X367943D01*
X370149Y160163D01*
X371837Y161851D01*
X372750Y164056D01*
Y166444D01*
X371837Y168649D01*
X370149Y170337D01*
X367943Y171250D01*
X365556D01*
X363351Y170337D01*
X362343Y169328D01*
X332689D01*
X314253Y187764D01*
X314847Y188967D01*
X315850Y188835D01*
X318722Y189213D01*
X321398Y190322D01*
X323202Y191706D01*
X324472Y191083D01*
Y189450D01*
X324472Y189450D01*
X324782Y187889D01*
X325666Y186566D01*
X335116Y177116D01*
X336439Y176232D01*
X338000Y175922D01*
X338000Y175922D01*
X549920D01*
X549920Y175922D01*
X551481Y176232D01*
X552804Y177116D01*
X565509Y189822D01*
X566978Y189213D01*
X569850Y188835D01*
X572722Y189213D01*
X575397Y190322D01*
X577695Y192085D01*
X579459Y194382D01*
X580567Y197058D01*
X580945Y199930D01*
Y203930D01*
X580567Y206802D01*
X579459Y209478D01*
X577695Y211775D01*
X575397Y213538D01*
X572722Y214647D01*
X569850Y215025D01*
X566978Y214647D01*
X564302Y213538D01*
X562005Y211775D01*
X560242Y209478D01*
X559133Y206802D01*
X558755Y203930D01*
Y199930D01*
X559133Y197058D01*
X559742Y195589D01*
X548231Y184078D01*
X339689D01*
X333448Y190319D01*
X333481Y190425D01*
X334954Y190896D01*
X335703Y190322D01*
X338378Y189213D01*
X341250Y188835D01*
X344122Y189213D01*
X346797Y190322D01*
X349095Y192085D01*
X350858Y194382D01*
X351967Y197058D01*
X352345Y199930D01*
Y203930D01*
X351967Y206802D01*
X350858Y209478D01*
X349095Y211775D01*
X346797Y213538D01*
X344122Y214647D01*
X341250Y215025D01*
X338378Y214647D01*
X335703Y213538D01*
X333405Y211775D01*
X332768Y210946D01*
X331738Y210979D01*
X331343Y211175D01*
X323704Y218814D01*
X322381Y219698D01*
X320821Y220008D01*
X320820Y220008D01*
X309759D01*
X283967Y245801D01*
Y247444D01*
X283053Y249649D01*
X281366Y251337D01*
X280292Y251781D01*
X280044Y253027D01*
X280939Y253922D01*
X491593D01*
X492601Y252913D01*
X494807Y252000D01*
X497193D01*
X499399Y252913D01*
X499748Y253263D01*
X500922Y252777D01*
Y245973D01*
X499748Y245487D01*
X499399Y245837D01*
X497193Y246750D01*
X494807D01*
X492601Y245837D01*
X491718Y244953D01*
X410782D01*
X409649Y246087D01*
X407444Y247000D01*
X405056D01*
X402851Y246087D01*
X401163Y244399D01*
X400250Y242194D01*
Y239806D01*
X401163Y237601D01*
X402851Y235913D01*
X405056Y235000D01*
X407444D01*
X409649Y235913D01*
X410532Y236797D01*
X491468D01*
X492601Y235663D01*
X494807Y234750D01*
X497193D01*
X499399Y235663D01*
X499748Y236013D01*
X500922Y235527D01*
Y217407D01*
X500414Y216899D01*
X499533Y214774D01*
X499473Y214678D01*
X498230Y213939D01*
X496522Y214647D01*
X493650Y215025D01*
X490778Y214647D01*
X488102Y213538D01*
X485805Y211775D01*
X484041Y209478D01*
X482933Y206802D01*
X482555Y203930D01*
Y199930D01*
X482933Y197058D01*
X484041Y194382D01*
X485805Y192085D01*
X488102Y190322D01*
X490778Y189213D01*
X493650Y188835D01*
X496522Y189213D01*
X499198Y190322D01*
X501495Y192085D01*
X503259Y194382D01*
X504367Y197058D01*
X504745Y199930D01*
Y203930D01*
X504442Y206230D01*
X505212Y207345D01*
X505452Y207500D01*
X506693D01*
X507363Y207777D01*
X508335Y206805D01*
X508333Y206802D01*
X507955Y203930D01*
Y199930D01*
X508333Y197058D01*
X509441Y194382D01*
X511205Y192085D01*
X513503Y190322D01*
X516178Y189213D01*
X519050Y188835D01*
X521922Y189213D01*
X524598Y190322D01*
X526895Y192085D01*
X528658Y194382D01*
X529767Y197058D01*
X530145Y199930D01*
Y203930D01*
X530001Y205022D01*
X531153Y206000D01*
X532347D01*
X533482Y204891D01*
X533355Y203930D01*
Y199930D01*
X533733Y197058D01*
X534841Y194382D01*
X536605Y192085D01*
X538903Y190322D01*
X541578Y189213D01*
X544450Y188835D01*
X547322Y189213D01*
X549997Y190322D01*
X552295Y192085D01*
X554058Y194382D01*
X555167Y197058D01*
X555545Y199930D01*
Y203930D01*
X555167Y206802D01*
X554058Y209478D01*
X552295Y211775D01*
X549997Y213538D01*
X547322Y214647D01*
X544450Y215025D01*
X541578Y214647D01*
X539073Y213609D01*
X538729Y213608D01*
X537530Y214086D01*
X536986Y215399D01*
X535298Y217087D01*
X533093Y218000D01*
X531667D01*
X525078Y224589D01*
Y251152D01*
X526348Y252000D01*
X527556Y251500D01*
X529944D01*
X532149Y252413D01*
X533657Y253922D01*
X647000D01*
X647000Y253922D01*
X648561Y254232D01*
X649884Y255116D01*
X660933Y266166D01*
X662203Y265191D01*
X664878Y264083D01*
X667750Y263705D01*
X671750D01*
X674622Y264083D01*
X677298Y265191D01*
X679595Y266955D01*
X681358Y269252D01*
X682467Y271928D01*
X682845Y274800D01*
X682467Y277672D01*
X681358Y280347D01*
X679595Y282645D01*
X677298Y284408D01*
X674622Y285517D01*
X671750Y285895D01*
X667750D01*
X664878Y285517D01*
X662203Y284408D01*
X659905Y282645D01*
X658141Y280347D01*
X657033Y277672D01*
X656655Y274800D01*
X656815Y273583D01*
X645311Y262078D01*
X576098D01*
X575250Y263348D01*
X575750Y264557D01*
Y266943D01*
X574837Y269149D01*
X573828Y270157D01*
Y314843D01*
X574837Y315851D01*
X575750Y318057D01*
Y320443D01*
X575695Y320577D01*
X576400Y321632D01*
X599882D01*
Y311380D01*
X600000Y310789D01*
Y310187D01*
X600230Y309630D01*
X600348Y309039D01*
X600683Y308538D01*
X600913Y307981D01*
X601339Y307555D01*
X601674Y307054D01*
X602175Y306720D01*
X602601Y306294D01*
X603158Y306063D01*
X603659Y305728D01*
X604250Y305611D01*
X604807Y305380D01*
X605409D01*
X606000Y305263D01*
X606591Y305380D01*
X607193D01*
X607750Y305611D01*
X608341Y305728D01*
X608842Y306063D01*
X609399Y306294D01*
X609825Y306720D01*
X610326Y307054D01*
X610660Y307555D01*
X611087Y307981D01*
X611317Y308538D01*
X611652Y309039D01*
X611769Y309630D01*
X612000Y310187D01*
Y310789D01*
X612118Y311380D01*
Y324235D01*
X611652Y326576D01*
X610326Y328561D01*
X606811Y332076D01*
X604826Y333402D01*
X602485Y333867D01*
X554250D01*
X553659Y333750D01*
X553057D01*
X552500Y333519D01*
X551909Y333402D01*
X551408Y333067D01*
X550851Y332836D01*
X550425Y332411D01*
X549924Y332076D01*
X549590Y331575D01*
X549164Y331149D01*
X548933Y330592D01*
X548598Y330091D01*
X548481Y329500D01*
X548250Y328943D01*
Y328341D01*
X548133Y327750D01*
X548250Y327159D01*
Y326557D01*
X548481Y326000D01*
X548598Y325409D01*
X548933Y324908D01*
X549164Y324351D01*
X549590Y323925D01*
X549924Y323424D01*
X550425Y323089D01*
X550851Y322663D01*
X551408Y322433D01*
X551909Y322098D01*
X552500Y321981D01*
X553057Y321750D01*
X553659D01*
X554250Y321632D01*
X555099D01*
X555805Y320577D01*
X555750Y320443D01*
Y318057D01*
X556664Y315851D01*
X557672Y314843D01*
Y270157D01*
X556664Y269149D01*
X555750Y266943D01*
Y264557D01*
X556250Y263348D01*
X555402Y262078D01*
X532657D01*
X532149Y262586D01*
X529944Y263500D01*
X527556D01*
X526348Y263000D01*
X525078Y263848D01*
Y315593D01*
X526337Y316851D01*
X527250Y319056D01*
Y321443D01*
X526337Y323649D01*
X524649Y325337D01*
X522444Y326250D01*
X520056D01*
X517851Y325337D01*
X516163Y323649D01*
X515250Y321443D01*
Y319056D01*
X516163Y316851D01*
X516922Y316093D01*
Y222900D01*
X516922Y222899D01*
X517232Y221339D01*
X518116Y220016D01*
X522415Y215717D01*
X521654Y214682D01*
X519050Y215025D01*
X516178Y214647D01*
X513503Y213538D01*
X512770Y212976D01*
X511500Y213603D01*
Y214694D01*
X510587Y216899D01*
X509078Y218407D01*
Y317343D01*
X509337Y317601D01*
X510250Y319806D01*
Y322193D01*
X509337Y324399D01*
X507649Y326087D01*
X505443Y327000D01*
X503056D01*
X500851Y326087D01*
X499163Y324399D01*
X498250Y322193D01*
Y320145D01*
X497447Y319476D01*
X497077Y319324D01*
X495443Y320000D01*
X493056D01*
X490851Y319087D01*
X489163Y317399D01*
X488250Y315194D01*
Y312806D01*
X489163Y310601D01*
X490172Y309593D01*
Y279819D01*
X488403Y279086D01*
X486716Y277399D01*
X485802Y275193D01*
Y272806D01*
X486716Y270601D01*
X488403Y268913D01*
X490609Y268000D01*
X492996D01*
X495201Y268913D01*
X496889Y270601D01*
X497802Y272806D01*
Y274835D01*
X498018Y275158D01*
X498328Y276719D01*
Y309593D01*
X499337Y310601D01*
X499652Y311362D01*
X500922Y311109D01*
Y263223D01*
X499748Y262737D01*
X499399Y263086D01*
X497193Y264000D01*
X494807D01*
X492601Y263086D01*
X491593Y262078D01*
X279250D01*
X277689Y261768D01*
X276366Y260884D01*
X276366Y260884D01*
X269350Y253868D01*
X267924D01*
X265719Y252954D01*
X264414Y251649D01*
X262831Y251436D01*
D01*
X261500Y252768D01*
D01*
Y254193D01*
X260587Y256399D01*
X258899Y258087D01*
X256693Y259000D01*
X254307D01*
X252101Y258087D01*
X250413Y256399D01*
X250223Y255938D01*
X248977Y255690D01*
X233793Y270874D01*
X234091Y272372D01*
X235399Y272913D01*
X237087Y274601D01*
X238000Y276807D01*
Y279193D01*
X237087Y281399D01*
X235399Y283087D01*
X234078Y283633D01*
Y324593D01*
X235336Y325851D01*
X236250Y328056D01*
Y330443D01*
X235336Y332649D01*
X233649Y334337D01*
X231444Y335250D01*
X229056D01*
X228328Y335737D01*
Y422343D01*
X229336Y423351D01*
X230250Y425556D01*
Y427943D01*
X229860Y428884D01*
X230937Y429603D01*
X247000Y413541D01*
X246280Y412464D01*
X246194Y412500D01*
X245591D01*
X245000Y412617D01*
X244409Y412500D01*
X243806D01*
X243250Y412269D01*
X242659Y412152D01*
X242158Y411817D01*
X241601Y411587D01*
X241175Y411161D01*
X240674Y410826D01*
X240340Y410325D01*
X239913Y409899D01*
X239683Y409342D01*
X239348Y408841D01*
X239231Y408250D01*
X239000Y407693D01*
Y407091D01*
X238883Y406500D01*
X239000Y405909D01*
Y405307D01*
X239231Y404750D01*
X239348Y404159D01*
X239683Y403658D01*
X239913Y403101D01*
X240340Y402675D01*
X240674Y402174D01*
X244147Y398702D01*
X246132Y397375D01*
X248473Y396910D01*
X269610D01*
X270158Y396683D01*
X270659Y396348D01*
X271250Y396231D01*
X271807Y396000D01*
X272409D01*
X273000Y395882D01*
X273591Y396000D01*
X274193D01*
X274750Y396231D01*
X275341Y396348D01*
X275842Y396683D01*
X276399Y396913D01*
X276825Y397340D01*
D01*
X277326Y397674D01*
X277661Y398175D01*
X278086Y398601D01*
X278317Y399158D01*
X278652Y399659D01*
X278769Y400250D01*
X279000Y400807D01*
Y401409D01*
X279118Y402000D01*
X279000Y402591D01*
Y403194D01*
X278769Y403750D01*
X278652Y404341D01*
X278475Y404605D01*
X279045Y405661D01*
X280384Y405702D01*
D01*
X284000Y402086D01*
Y400148D01*
X284913Y397943D01*
X286601Y396255D01*
X288806Y395341D01*
X291193D01*
X292652Y395945D01*
X293922Y395118D01*
Y361005D01*
X292748Y360519D01*
X275884Y377384D01*
X274561Y378268D01*
X273000Y378578D01*
X273000Y378578D01*
X241907D01*
X240399Y380087D01*
X238193Y381000D01*
X235807D01*
X233601Y380087D01*
X231914Y378399D01*
X231000Y376194D01*
Y373806D01*
X231914Y371601D01*
X232515Y371000D01*
X231914Y370399D01*
X231000Y368194D01*
Y365807D01*
X231914Y363601D01*
X233601Y361913D01*
X235807Y361000D01*
X238193D01*
X240399Y361913D01*
X240907Y362422D01*
X270811D01*
X282922Y350311D01*
D01*
Y295750D01*
X282922Y295750D01*
X283232Y294189D01*
X284116Y292866D01*
X301116Y275866D01*
X301116Y275866D01*
X302439Y274982D01*
X304000Y274672D01*
X304000Y274672D01*
X409250D01*
X409250Y274672D01*
X410811Y274982D01*
X412134Y275866D01*
X497689Y361422D01*
X596593D01*
X597851Y360163D01*
X600056Y359250D01*
X602444D01*
X604649Y360163D01*
X606337Y361851D01*
X607250Y364057D01*
Y366443D01*
X606972Y367116D01*
X607677Y368172D01*
X610000D01*
X610000Y368172D01*
X611561Y368482D01*
X612884Y369366D01*
X652384Y408866D01*
X653268Y410189D01*
X653578Y411750D01*
X653578Y411750D01*
Y423061D01*
X660952Y430434D01*
X661405Y430405D01*
X663702Y428642D01*
X666378Y427533D01*
X669250Y427155D01*
X673250D01*
X676122Y427533D01*
X678798Y428642D01*
X681095Y430405D01*
X682859Y432703D01*
X683967Y435378D01*
X684345Y438250D01*
X683967Y441122D01*
X682859Y443797D01*
X681095Y446095D01*
X678798Y447859D01*
X676122Y448967D01*
X673250Y449345D01*
X669250D01*
X666378Y448967D01*
X663702Y447859D01*
X661405Y446095D01*
X659641Y443797D01*
X658533Y441122D01*
X658272Y439140D01*
X657820Y438838D01*
X657820Y438838D01*
X646616Y427634D01*
X645732Y426311D01*
X645422Y424750D01*
X645422Y424750D01*
Y413439D01*
X637252Y405269D01*
X636078Y405755D01*
Y449593D01*
X637087Y450601D01*
X638000Y452807D01*
Y455193D01*
X637087Y457399D01*
X635399Y459087D01*
X633194Y460000D01*
X630807D01*
X628601Y459087D01*
X626913Y457399D01*
X626000Y455193D01*
Y452807D01*
X626913Y450601D01*
X627922Y449593D01*
Y403689D01*
X607311Y383078D01*
X582407D01*
X581399Y384087D01*
X579193Y385000D01*
X576806D01*
X574601Y384087D01*
X572914Y382399D01*
X572000Y380193D01*
Y377807D01*
X572175Y377384D01*
X571469Y376328D01*
X493250D01*
X493250Y376328D01*
X491689Y376018D01*
X490366Y375134D01*
X490366Y375134D01*
X440023Y324791D01*
X438525Y325089D01*
X438087Y326149D01*
X436399Y327836D01*
X436303Y328318D01*
X437087Y329101D01*
X438000Y331306D01*
Y333694D01*
X437087Y335899D01*
X435399Y337587D01*
X433194Y338500D01*
X430807D01*
X428601Y337587D01*
X426913Y335899D01*
X426000Y333694D01*
Y332268D01*
X394646Y300914D01*
X394270Y300951D01*
X393250Y301807D01*
Y304193D01*
X392337Y306399D01*
X390649Y308087D01*
X388443Y309000D01*
X386057D01*
X383851Y308087D01*
X382843Y307078D01*
X321939D01*
X315578Y313439D01*
Y313579D01*
Y411642D01*
X315268Y413203D01*
X314384Y414526D01*
X314384Y414526D01*
X298220Y430690D01*
X298194Y430769D01*
X298312Y431896D01*
X298470Y432236D01*
X298899Y432413D01*
X299325Y432840D01*
X299826Y433174D01*
X300161Y433675D01*
X300586Y434101D01*
X300817Y434658D01*
X301152Y435159D01*
X301269Y435750D01*
D01*
X301500Y436306D01*
Y436909D01*
D01*
X301618Y437500D01*
Y439750D01*
X301152Y442091D01*
X299826Y444076D01*
X280326Y463576D01*
X279825Y463910D01*
X279399Y464337D01*
X278842Y464567D01*
X278341Y464902D01*
X277750Y465019D01*
X277194Y465250D01*
X276591D01*
X276000Y465368D01*
X275409Y465250D01*
X274806D01*
X274250Y465019D01*
X273659Y464902D01*
X273158Y464567D01*
X272601Y464337D01*
X272175Y463910D01*
X271674Y463576D01*
X271339Y463075D01*
X270914Y462649D01*
X270683Y462092D01*
X270348Y461591D01*
X270231Y461000D01*
D01*
X270077Y460629D01*
X269337Y460306D01*
X268730Y460180D01*
X234374Y494536D01*
X235093Y495612D01*
X235888Y495283D01*
X238760Y494905D01*
X241632Y495283D01*
X244307Y496391D01*
X246605Y498155D01*
X248368Y500452D01*
X249477Y503128D01*
X249855Y506000D01*
Y510000D01*
X249477Y512872D01*
X248368Y515547D01*
X246605Y517845D01*
X244307Y519608D01*
X241632Y520717D01*
X238760Y521095D01*
X235888Y520717D01*
X233213Y519608D01*
X230915Y517845D01*
X230636Y517482D01*
X229369Y517399D01*
X220134Y526634D01*
X218811Y527518D01*
X217250Y527828D01*
X217250Y527828D01*
X186154D01*
X186154Y527828D01*
X184593Y527518D01*
X183270Y526634D01*
X174076Y517440D01*
X173192Y516117D01*
X172882Y514556D01*
X172882Y514556D01*
Y500899D01*
X170298Y498315D01*
X169238Y499000D01*
X170670Y502458D01*
X171400Y506129D01*
Y509871D01*
X170670Y513542D01*
X169238Y517000D01*
X167158Y520112D01*
X164512Y522758D01*
X161400Y524838D01*
X157942Y526270D01*
X154271Y527000D01*
X150529D01*
X146858Y526270D01*
X143400Y524838D01*
X140288Y522758D01*
X137642Y520112D01*
X135562Y517000D01*
X134130Y513542D01*
X133400Y509871D01*
Y506129D01*
X134130Y502458D01*
X135562Y499000D01*
X137642Y495888D01*
X140288Y493242D01*
X142748Y491598D01*
X142362Y490328D01*
X66000D01*
X64439Y490018D01*
X63116Y489134D01*
X63116Y489134D01*
X34866Y460884D01*
X33982Y459561D01*
X33672Y458000D01*
X33672Y458000D01*
Y378839D01*
X21112Y366280D01*
X20789Y366466D01*
X17864Y367250D01*
X14836D01*
X11911Y366466D01*
X9289Y364952D01*
X7148Y362811D01*
X5634Y360189D01*
X4850Y357264D01*
Y354236D01*
X5634Y351311D01*
X7148Y348689D01*
X9226Y346611D01*
X9288Y346509D01*
X9253Y345102D01*
X8703Y344734D01*
X8703Y344734D01*
X1966Y337997D01*
X1082Y336674D01*
X772Y335113D01*
X772Y335113D01*
Y263857D01*
X772Y263857D01*
X1082Y262296D01*
X1966Y260973D01*
X5847Y257092D01*
X5250Y254864D01*
Y251836D01*
X6034Y248911D01*
X7548Y246289D01*
X9689Y244148D01*
X12311Y242634D01*
X15236Y241850D01*
X18264D01*
X21189Y242634D01*
X23811Y244148D01*
X25952Y246289D01*
X27466Y248911D01*
X28250Y251836D01*
Y254864D01*
X27466Y257789D01*
X25952Y260411D01*
X23811Y262552D01*
X21189Y264066D01*
X18264Y264850D01*
X15236D01*
X12311Y264066D01*
X11105Y263370D01*
X8928Y265546D01*
Y267250D01*
X28250D01*
Y290250D01*
X8928D01*
Y333424D01*
X13276Y337772D01*
X18713D01*
X18714Y337772D01*
X20274Y338082D01*
X21597Y338966D01*
X31290Y348659D01*
X32832Y348405D01*
X33458Y347778D01*
X33368Y346855D01*
X25645Y339132D01*
X24540Y337479D01*
X24152Y335528D01*
Y323250D01*
X24540Y321299D01*
X25645Y319645D01*
X33402Y311888D01*
Y302250D01*
X33790Y300299D01*
X34895Y298645D01*
X42117Y291423D01*
X41631Y290250D01*
X40636D01*
X37711Y289466D01*
X35089Y287952D01*
X32948Y285811D01*
X31434Y283189D01*
X30650Y280264D01*
Y277236D01*
X31434Y274311D01*
X32948Y271689D01*
X35089Y269548D01*
X37711Y268034D01*
X40636Y267250D01*
X43664D01*
X46589Y268034D01*
X49211Y269548D01*
X49479Y269815D01*
X50652Y269329D01*
Y262771D01*
X49479Y262285D01*
X49211Y262552D01*
X46589Y264066D01*
X43664Y264850D01*
X40636D01*
X37711Y264066D01*
X35089Y262552D01*
X32948Y260411D01*
X31434Y257789D01*
X30650Y254864D01*
Y251836D01*
X31434Y248911D01*
X32948Y246289D01*
X35089Y244148D01*
X37711Y242634D01*
X40636Y241850D01*
X43664D01*
X46589Y242634D01*
X49211Y244148D01*
X49479Y244415D01*
X50652Y243929D01*
Y211786D01*
X13000D01*
X11830Y211553D01*
X10837Y210890D01*
X4837Y204890D01*
X4174Y203898D01*
X3941Y202727D01*
X3941Y202727D01*
Y166727D01*
X4174Y165557D01*
X4837Y164564D01*
X4837Y164564D01*
X8970Y160432D01*
X9962Y159769D01*
X11132Y159536D01*
X11133Y159536D01*
X38138D01*
X49571Y148103D01*
X49571Y131647D01*
X35710Y117786D01*
X3000Y117786D01*
X1830Y117553D01*
X837Y116890D01*
X174Y115898D01*
X-59Y114727D01*
Y2727D01*
X174Y1557D01*
X366Y1270D01*
X-218Y177D01*
X-543Y142D01*
X-1488Y990D01*
Y533532D01*
X207000D01*
Y534000D01*
X685000D01*
X687000Y532000D01*
D02*
G37*
G36*
X278807Y415252D02*
X278321Y414078D01*
X267925D01*
X233119Y448884D01*
X231796Y449768D01*
X230235Y450078D01*
X230235Y450078D01*
X209000D01*
X209000Y450078D01*
X207439Y449768D01*
X206116Y448884D01*
X206116Y448884D01*
X112658Y355425D01*
X111949Y354365D01*
X110837Y354049D01*
X110489Y354029D01*
X103384Y361134D01*
X102061Y362018D01*
X100500Y362328D01*
X100500Y362328D01*
X93161D01*
X92819Y362670D01*
X92262Y363500D01*
X92819Y364330D01*
X93161Y364672D01*
X98250D01*
X98250Y364672D01*
X99811Y364982D01*
X101134Y365866D01*
X113254Y377986D01*
X114779D01*
X115351Y377413D01*
X117556Y376500D01*
X119944D01*
X122149Y377413D01*
X123837Y379101D01*
X124750Y381306D01*
Y383694D01*
X123837Y385899D01*
X122149Y387587D01*
X119944Y388500D01*
X118648D01*
X118122Y389770D01*
X143263Y414912D01*
X155853D01*
X156351Y414413D01*
X158556Y413500D01*
X160944D01*
X163149Y414413D01*
X164837Y416101D01*
X165750Y418307D01*
Y420694D01*
X164837Y422899D01*
X163149Y424587D01*
X160944Y425500D01*
X158556D01*
X156351Y424587D01*
X155853Y424088D01*
X141363D01*
X139607Y423739D01*
X138119Y422744D01*
X116839Y401464D01*
X115569Y401211D01*
X115143Y401637D01*
X114808Y402138D01*
X114307Y402472D01*
X113881Y402898D01*
X113325Y403129D01*
X112824Y403464D01*
X112233Y403581D01*
X111676Y403812D01*
X111074D01*
X110483Y403929D01*
X103312D01*
X100971Y403464D01*
X98986Y402138D01*
X76428Y379580D01*
X75102Y377595D01*
X74636Y375254D01*
Y367250D01*
X59848D01*
Y447638D01*
X74112Y461902D01*
X77629D01*
X79806Y461000D01*
X82193D01*
X84399Y461913D01*
X86087Y463601D01*
X87000Y465807D01*
Y468194D01*
X86618Y469116D01*
X87324Y470172D01*
X103161D01*
X116717Y456616D01*
X118040Y455732D01*
X119600Y455422D01*
X213361D01*
X214369Y454413D01*
X216574Y453500D01*
X218961D01*
X221166Y454413D01*
X222854Y456101D01*
X223768Y458307D01*
Y460694D01*
X222854Y462899D01*
X221166Y464587D01*
X218961Y465500D01*
X216574D01*
X214369Y464587D01*
X213361Y463578D01*
X129634D01*
X128929Y464634D01*
X129000Y464807D01*
Y467193D01*
X128087Y469399D01*
X126399Y471087D01*
X124193Y472000D01*
X122768D01*
X113769Y480998D01*
X114255Y482172D01*
X164000D01*
X164000Y482172D01*
X165561Y482482D01*
X166884Y483366D01*
X179844Y496326D01*
X179844Y496326D01*
X180036Y496614D01*
X181753Y496898D01*
X182412Y496391D01*
X185088Y495283D01*
X187960Y494905D01*
X190832Y495283D01*
X193507Y496391D01*
X195805Y498155D01*
X195898Y498161D01*
X278807Y415252D01*
D02*
G37*
G36*
X48914Y314197D02*
X50403Y313202D01*
X52159Y312853D01*
X78441D01*
X80197Y313202D01*
X80902Y313673D01*
X82172Y312994D01*
Y277676D01*
X81351Y277337D01*
X79663Y275649D01*
X78750Y273444D01*
Y271056D01*
X79663Y268851D01*
X81351Y267163D01*
X83556Y266250D01*
X85943D01*
X88149Y267163D01*
X89219Y268234D01*
X96656D01*
X97601Y267288D01*
X99806Y266375D01*
X102193D01*
X104399Y267288D01*
X106087Y268976D01*
X107000Y271182D01*
Y273568D01*
X106087Y275774D01*
X104399Y277461D01*
X102193Y278375D01*
X99806D01*
X97601Y277461D01*
X96531Y276391D01*
X90328D01*
Y294745D01*
X91502Y295231D01*
X91862Y294870D01*
X91862Y294870D01*
X93185Y293986D01*
X94746Y293676D01*
X94746Y293676D01*
X118032D01*
X118333Y293225D01*
Y290838D01*
X119246Y288633D01*
X120934Y286945D01*
X123139Y286031D01*
X125526D01*
X127732Y286945D01*
X128740Y287953D01*
X143029D01*
X177509Y253473D01*
X177262Y252227D01*
X176922Y252087D01*
X176551Y251715D01*
X176061D01*
X174110Y251327D01*
X172456Y250222D01*
X155033Y232799D01*
X153944Y233250D01*
X151557D01*
X149351Y232337D01*
X147663Y230649D01*
X146750Y228444D01*
Y226056D01*
X147663Y223851D01*
X149351Y222163D01*
X150598Y221647D01*
X150896Y220149D01*
X148825Y218078D01*
X69219D01*
X69087Y218399D01*
X67399Y220087D01*
X65194Y221000D01*
X62807D01*
X61904Y220626D01*
X60848Y221332D01*
Y285000D01*
X60460Y286951D01*
X59355Y288605D01*
X43598Y304362D01*
Y314000D01*
X43210Y315951D01*
X42121Y317580D01*
X42223Y318134D01*
X42519Y318850D01*
X43264D01*
X44051Y319061D01*
X48914Y314197D01*
D02*
G37*
G36*
X175297Y231218D02*
X175340Y231175D01*
X175674Y230674D01*
X176175Y230340D01*
X176601Y229914D01*
X177158Y229683D01*
X177659Y229348D01*
X178250Y229231D01*
X178806Y229000D01*
X179409D01*
X180000Y228883D01*
X182824D01*
X194382Y217324D01*
Y159786D01*
X88040D01*
X58059Y189767D01*
Y196849D01*
X59355Y198145D01*
X60460Y199799D01*
X60848Y201750D01*
Y208668D01*
X61904Y209374D01*
X62807Y209000D01*
X65194D01*
X67399Y209913D01*
X67407Y209922D01*
X150515D01*
X150515Y209922D01*
X152076Y210232D01*
X153399Y211116D01*
X173640Y231357D01*
X173897Y231407D01*
X175297Y231218D01*
D02*
G37*
G36*
X212500Y441194D02*
Y438806D01*
X213413Y436601D01*
X214047Y435968D01*
Y355247D01*
X214047Y355247D01*
X214172Y354618D01*
Y281657D01*
X213164Y280649D01*
X212250Y278444D01*
Y276056D01*
X213164Y273851D01*
X214851Y272163D01*
X217057Y271250D01*
X219443D01*
X221219Y271985D01*
X221366Y271766D01*
X257322Y235810D01*
Y162900D01*
X244168D01*
X231328Y175739D01*
Y233000D01*
X231328Y233000D01*
X231018Y234561D01*
X230134Y235884D01*
X152134Y313884D01*
X150811Y314768D01*
X149250Y315078D01*
X149250Y315078D01*
X126689D01*
X119134Y322634D01*
X117811Y323518D01*
X116250Y323828D01*
X116250Y323828D01*
X112565D01*
X112179Y325098D01*
X112742Y325474D01*
X118425Y331158D01*
X119310Y332481D01*
X119620Y334042D01*
X119620Y334042D01*
Y350852D01*
X210689Y441922D01*
X212013D01*
X212500Y441194D01*
D02*
G37*
G36*
X55000Y188500D02*
X86773Y156727D01*
X203750D01*
Y89750D01*
X178000Y89750D01*
X178000Y130500D01*
X80720D01*
X50516Y97750D01*
X20000D01*
Y2727D01*
X3000D01*
Y114727D01*
X36977Y114727D01*
X52630Y130380D01*
X52630Y149370D01*
X39405Y162595D01*
X11132D01*
X7000Y166727D01*
Y202727D01*
X13000Y208727D01*
X55000D01*
Y188500D01*
D02*
G37*
G36*
X100250Y87500D02*
X97000D01*
X72500Y63000D01*
Y2152D01*
X72191Y2000D01*
X72000D01*
X71815Y1815D01*
X71393Y1607D01*
X71000Y2000D01*
X54000D01*
Y26500D01*
X54103Y26750D01*
X64000D01*
Y68750D01*
X83923Y88673D01*
X83923Y88673D01*
X89500Y94250D01*
X89500Y117716D01*
X100250D01*
Y87500D01*
D02*
G37*
%LPC*%
G36*
X646000Y521000D02*
X624000D01*
Y495000D01*
X646000D01*
Y521000D01*
D02*
G37*
G36*
X427560D02*
X405560D01*
Y495000D01*
X427560D01*
Y521000D01*
D02*
G37*
G36*
X609600Y521095D02*
X606728Y520717D01*
X604053Y519608D01*
X601755Y517845D01*
X599991Y515547D01*
X598883Y512872D01*
X598505Y510000D01*
Y506000D01*
X598883Y503128D01*
X599991Y500452D01*
X601755Y498155D01*
X604053Y496391D01*
X606728Y495283D01*
X609600Y494905D01*
X612472Y495283D01*
X615148Y496391D01*
X617445Y498155D01*
X619208Y500452D01*
X620317Y503128D01*
X620695Y506000D01*
Y510000D01*
X620317Y512872D01*
X619208Y515547D01*
X617445Y517845D01*
X615148Y519608D01*
X612472Y520717D01*
X609600Y521095D01*
D02*
G37*
G36*
X584200D02*
X581328Y520717D01*
X578652Y519608D01*
X576355Y517845D01*
X574591Y515547D01*
X573483Y512872D01*
X573105Y510000D01*
Y506000D01*
X573483Y503128D01*
X574591Y500452D01*
X576355Y498155D01*
X578652Y496391D01*
X581328Y495283D01*
X584200Y494905D01*
X587072Y495283D01*
X589748Y496391D01*
X592045Y498155D01*
X593809Y500452D01*
X594917Y503128D01*
X595295Y506000D01*
Y510000D01*
X594917Y512872D01*
X593809Y515547D01*
X592045Y517845D01*
X589748Y519608D01*
X587072Y520717D01*
X584200Y521095D01*
D02*
G37*
G36*
X558800D02*
X555928Y520717D01*
X553252Y519608D01*
X550955Y517845D01*
X549192Y515547D01*
X548083Y512872D01*
X547705Y510000D01*
Y506000D01*
X548083Y503128D01*
X549192Y500452D01*
X550955Y498155D01*
X553252Y496391D01*
X555928Y495283D01*
X558800Y494905D01*
X561672Y495283D01*
X564347Y496391D01*
X566645Y498155D01*
X568409Y500452D01*
X569517Y503128D01*
X569895Y506000D01*
Y510000D01*
X569517Y512872D01*
X568409Y515547D01*
X566645Y517845D01*
X564347Y519608D01*
X561672Y520717D01*
X558800Y521095D01*
D02*
G37*
G36*
X533400D02*
X530528Y520717D01*
X527853Y519608D01*
X525555Y517845D01*
X523792Y515547D01*
X522683Y512872D01*
X522305Y510000D01*
Y506000D01*
X522683Y503128D01*
X523792Y500452D01*
X525555Y498155D01*
X527853Y496391D01*
X530528Y495283D01*
X533400Y494905D01*
X536272Y495283D01*
X538947Y496391D01*
X541245Y498155D01*
X543008Y500452D01*
X544117Y503128D01*
X544495Y506000D01*
Y510000D01*
X544117Y512872D01*
X543008Y515547D01*
X541245Y517845D01*
X538947Y519608D01*
X536272Y520717D01*
X533400Y521095D01*
D02*
G37*
G36*
X457200D02*
X454328Y520717D01*
X451652Y519608D01*
X449355Y517845D01*
X447592Y515547D01*
X446483Y512872D01*
X446105Y510000D01*
Y506000D01*
X446120Y505888D01*
X423116Y482884D01*
X422232Y481561D01*
X421922Y480000D01*
X421922Y480000D01*
Y421439D01*
X405732Y405250D01*
X404306D01*
X402101Y404337D01*
X400413Y402649D01*
X399500Y400443D01*
Y398056D01*
X400413Y395851D01*
X402101Y394163D01*
X404306Y393250D01*
X406693D01*
X408156Y393856D01*
X409383Y392989D01*
Y339500D01*
X409500Y338909D01*
Y338307D01*
X409731Y337750D01*
X409848Y337159D01*
X410183Y336658D01*
X410414Y336101D01*
X410840Y335675D01*
X411174Y335174D01*
X411675Y334840D01*
X412101Y334413D01*
X412658Y334183D01*
X413159Y333848D01*
X413750Y333731D01*
X414306Y333500D01*
X414909D01*
X415500Y333382D01*
X416091Y333500D01*
X416693D01*
X417250Y333731D01*
X417841Y333848D01*
X418342Y334183D01*
X418899Y334413D01*
X419325Y334840D01*
X419826Y335174D01*
X420160Y335675D01*
X420587Y336101D01*
X420817Y336658D01*
X421152Y337159D01*
X421269Y337750D01*
X421500Y338307D01*
Y338909D01*
X421618Y339500D01*
Y393750D01*
X421500Y394341D01*
Y394944D01*
X421269Y395500D01*
X421152Y396091D01*
X420817Y396592D01*
X420587Y397149D01*
X420160Y397575D01*
X419826Y398076D01*
X419325Y398410D01*
X418899Y398837D01*
X418342Y399067D01*
X417841Y399402D01*
X417250Y399519D01*
X416693Y399750D01*
X416091D01*
X415500Y399868D01*
X414909Y399750D01*
X414306D01*
X413750Y399519D01*
X413230Y399416D01*
X413151Y399471D01*
X412643Y400625D01*
X428884Y416866D01*
X428884Y416866D01*
X429768Y418189D01*
X430078Y419750D01*
Y478311D01*
X449676Y497908D01*
X451652Y496391D01*
X454328Y495283D01*
X457200Y494905D01*
X460072Y495283D01*
X462747Y496391D01*
X465045Y498155D01*
X466809Y500452D01*
X467917Y503128D01*
X468295Y506000D01*
Y510000D01*
X467917Y512872D01*
X466809Y515547D01*
X465045Y517845D01*
X462747Y519608D01*
X460072Y520717D01*
X457200Y521095D01*
D02*
G37*
G36*
X391160D02*
X388288Y520717D01*
X385612Y519608D01*
X383315Y517845D01*
X381552Y515547D01*
X380443Y512872D01*
X380065Y510000D01*
Y506000D01*
X380443Y503128D01*
X381552Y500452D01*
X382912Y498680D01*
X381866Y497634D01*
X380982Y496311D01*
X380672Y494750D01*
X380672Y494750D01*
Y398907D01*
X379913Y398149D01*
X379000Y395943D01*
Y393557D01*
X379913Y391351D01*
X381601Y389664D01*
X383806Y388750D01*
X386194D01*
X388399Y389664D01*
X390087Y391351D01*
X391000Y393557D01*
Y395943D01*
X390087Y398149D01*
X388828Y399407D01*
Y493061D01*
X390564Y494797D01*
X390564Y494797D01*
X390679Y494968D01*
X391160Y494905D01*
X394032Y495283D01*
X396707Y496391D01*
X399005Y498155D01*
X400769Y500452D01*
X401877Y503128D01*
X402255Y506000D01*
Y510000D01*
X401877Y512872D01*
X400769Y515547D01*
X399005Y517845D01*
X396707Y519608D01*
X394032Y520717D01*
X391160Y521095D01*
D02*
G37*
G36*
X314960D02*
X312088Y520717D01*
X309412Y519608D01*
X307115Y517845D01*
X305352Y515547D01*
X304243Y512872D01*
X303865Y510000D01*
Y506000D01*
X304243Y503128D01*
X305352Y500452D01*
X307115Y498155D01*
X309412Y496391D01*
X312088Y495283D01*
X314960Y494905D01*
X317832Y495283D01*
X320508Y496391D01*
X322805Y498155D01*
X324568Y500452D01*
X325677Y503128D01*
X326055Y506000D01*
Y510000D01*
X325677Y512872D01*
X324568Y515547D01*
X322805Y517845D01*
X320508Y519608D01*
X317832Y520717D01*
X316557Y520885D01*
D01*
X314960Y521095D01*
D02*
G37*
G36*
X289560D02*
X286688Y520717D01*
X284013Y519608D01*
X281715Y517845D01*
X279951Y515547D01*
X278843Y512872D01*
X278465Y510000D01*
Y506000D01*
X278843Y503128D01*
X279951Y500452D01*
X281715Y498155D01*
X284013Y496391D01*
X286688Y495283D01*
X289560Y494905D01*
X292432Y495283D01*
X295107Y496391D01*
X297405Y498155D01*
X299168Y500452D01*
X300277Y503128D01*
X300655Y506000D01*
Y510000D01*
X300277Y512872D01*
X299168Y515547D01*
X297405Y517845D01*
X295107Y519608D01*
X292432Y520717D01*
X289560Y521095D01*
D02*
G37*
G36*
X407946Y491063D02*
X407628Y491000D01*
X406806D01*
X406047Y490686D01*
X405604Y490597D01*
X405229Y490347D01*
X404601Y490087D01*
X404121Y489606D01*
X403620Y489271D01*
X403285Y488770D01*
X402913Y488399D01*
X402712Y487913D01*
X402294Y487287D01*
X402147Y486547D01*
X402000Y486194D01*
Y485810D01*
X401828Y484945D01*
Y461146D01*
X401891Y460829D01*
Y459594D01*
X402804Y457388D01*
X404492Y455701D01*
X406698Y454787D01*
X409085D01*
X411290Y455701D01*
X412978Y457388D01*
X413510Y458674D01*
X413597Y458805D01*
X413628Y458959D01*
X413891Y459594D01*
Y460281D01*
X414063Y461146D01*
Y484945D01*
X414000Y485263D01*
Y486194D01*
X413644Y487053D01*
X413597Y487287D01*
X413465Y487484D01*
X413087Y488399D01*
X412387Y489099D01*
X412271Y489271D01*
X412099Y489387D01*
X411399Y490087D01*
X410484Y490465D01*
X410287Y490597D01*
X410053Y490644D01*
X409193Y491000D01*
X408263D01*
X407946Y491063D01*
D02*
G37*
G36*
X508000Y521095D02*
X505128Y520717D01*
X502453Y519608D01*
X500155Y517845D01*
X498391Y515547D01*
X497283Y512872D01*
X496905Y510000D01*
Y506000D01*
X497283Y503128D01*
X498391Y500452D01*
X500155Y498155D01*
X502453Y496391D01*
X503113Y496118D01*
Y410848D01*
X501913Y409649D01*
X501000Y407444D01*
Y405056D01*
X501913Y402851D01*
X503601Y401163D01*
X505807Y400250D01*
X508194D01*
X510399Y401163D01*
X512087Y402851D01*
X513000Y405056D01*
Y407444D01*
X512087Y409649D01*
X511270Y410466D01*
Y457893D01*
X512443Y458379D01*
X513575Y457248D01*
X516425Y455602D01*
X519604Y454750D01*
X522896D01*
X526075Y455602D01*
X528925Y457248D01*
X531253Y459575D01*
X532898Y462425D01*
X533750Y465604D01*
Y468896D01*
X532898Y472075D01*
X531253Y474925D01*
X528925Y477253D01*
X526075Y478898D01*
X522896Y479750D01*
X519604D01*
X516425Y478898D01*
X513575Y477253D01*
X512443Y476121D01*
X511270Y476607D01*
Y495448D01*
X513548Y496391D01*
X515845Y498155D01*
X517608Y500452D01*
X518717Y503128D01*
X519095Y506000D01*
Y510000D01*
X518717Y512872D01*
X517608Y515547D01*
X515845Y517845D01*
X513548Y519608D01*
X510872Y520717D01*
X508000Y521095D01*
D02*
G37*
G36*
X468750Y479750D02*
X443750D01*
Y454750D01*
X468750D01*
Y479750D01*
D02*
G37*
G36*
X684250Y474650D02*
X658250D01*
Y452650D01*
X684250D01*
Y474650D01*
D02*
G37*
G36*
X365760Y521095D02*
X362888Y520717D01*
X360213Y519608D01*
X357915Y517845D01*
X356152Y515547D01*
X355043Y512872D01*
X354665Y510000D01*
Y506000D01*
X355043Y503128D01*
X356152Y500452D01*
X357006Y499339D01*
X356982Y499304D01*
X356672Y497743D01*
X356672Y497743D01*
Y442157D01*
X355663Y441149D01*
X354750Y438943D01*
Y436557D01*
X355663Y434351D01*
X357351Y432663D01*
X359557Y431750D01*
X361943D01*
X364149Y432663D01*
X365836Y434351D01*
X366750Y436557D01*
Y438943D01*
X365836Y441149D01*
X364828Y442157D01*
Y494088D01*
X365760Y494905D01*
X368632Y495283D01*
X371307Y496391D01*
X373605Y498155D01*
X375368Y500452D01*
X376477Y503128D01*
X376855Y506000D01*
Y510000D01*
X376477Y512872D01*
X375368Y515547D01*
X373605Y517845D01*
X371307Y519608D01*
X368632Y520717D01*
X365760Y521095D01*
D02*
G37*
G36*
X624750Y434750D02*
X599750D01*
Y426328D01*
X559098D01*
X558898Y427075D01*
X557253Y429925D01*
X554925Y432253D01*
X552075Y433898D01*
X548896Y434750D01*
X545604D01*
X542425Y433898D01*
X539575Y432253D01*
X537248Y429925D01*
X535602Y427075D01*
X534750Y423896D01*
Y420604D01*
X535602Y417425D01*
X537248Y414575D01*
X539575Y412248D01*
X542425Y410602D01*
X545604Y409750D01*
X548896D01*
X552075Y410602D01*
X554925Y412248D01*
X557253Y414575D01*
X558898Y417425D01*
X559098Y418172D01*
X599750D01*
Y409750D01*
X624750D01*
Y434750D01*
D02*
G37*
G36*
X673250Y423945D02*
X669250D01*
X666378Y423567D01*
X663702Y422458D01*
X661405Y420695D01*
X659641Y418397D01*
X658533Y415722D01*
X658155Y412850D01*
X658533Y409978D01*
X659641Y407303D01*
X661405Y405005D01*
X663702Y403242D01*
X666378Y402133D01*
X669250Y401755D01*
X673250D01*
X676122Y402133D01*
X678798Y403242D01*
X681095Y405005D01*
X682859Y407303D01*
X683967Y409978D01*
X684345Y412850D01*
X683967Y415722D01*
X682859Y418397D01*
X681095Y420695D01*
X678798Y422458D01*
X676122Y423567D01*
X673250Y423945D01*
D02*
G37*
G36*
X482600Y521095D02*
X479728Y520717D01*
X477052Y519608D01*
X474755Y517845D01*
X472991Y515547D01*
X471883Y512872D01*
X471505Y510000D01*
Y506000D01*
X471883Y503128D01*
X472991Y500452D01*
X474755Y498155D01*
X477052Y496391D01*
X478472Y495804D01*
Y410957D01*
X477413Y409899D01*
X476500Y407693D01*
Y405307D01*
X477413Y403101D01*
X479101Y401413D01*
X481306Y400500D01*
X483694D01*
X485899Y401413D01*
X487587Y403101D01*
X488500Y405307D01*
Y407693D01*
X487587Y409899D01*
X486628Y410857D01*
Y495762D01*
X488148Y496391D01*
X490445Y498155D01*
X492209Y500452D01*
X493317Y503128D01*
X493695Y506000D01*
Y510000D01*
X493317Y512872D01*
X492209Y515547D01*
X490445Y517845D01*
X488148Y519608D01*
X485472Y520717D01*
X482600Y521095D01*
D02*
G37*
G36*
X340360D02*
X337488Y520717D01*
X334813Y519608D01*
X332515Y517845D01*
X330751Y515547D01*
X329643Y512872D01*
X329265Y510000D01*
Y506000D01*
X329643Y503128D01*
X330751Y500452D01*
X332515Y498155D01*
X334813Y496391D01*
X336602Y495650D01*
Y324337D01*
X335663Y323399D01*
X334750Y321194D01*
Y318806D01*
X335663Y316601D01*
X337351Y314913D01*
X339557Y314000D01*
X341944D01*
X344149Y314913D01*
X345836Y316601D01*
X346750Y318806D01*
Y321194D01*
X345836Y323399D01*
X344758Y324477D01*
Y495915D01*
X345908Y496391D01*
X348205Y498155D01*
X349968Y500452D01*
X351077Y503128D01*
X351455Y506000D01*
Y510000D01*
X351077Y512872D01*
X349968Y515547D01*
X348205Y517845D01*
X345908Y519608D01*
X343232Y520717D01*
X340360Y521095D01*
D02*
G37*
G36*
X682750Y311200D02*
X656750D01*
Y304278D01*
X636950D01*
X636950Y304278D01*
X635389Y303968D01*
X634066Y303084D01*
X619561Y288578D01*
X609407D01*
X608149Y289837D01*
X605943Y290750D01*
X603557D01*
X601351Y289837D01*
X599663Y288149D01*
X598750Y285944D01*
Y283556D01*
X599663Y281351D01*
X601351Y279663D01*
X603557Y278750D01*
X605943D01*
X608149Y279663D01*
X608907Y280422D01*
X621250D01*
X621250Y280422D01*
X622811Y280732D01*
X624134Y281616D01*
X638639Y296122D01*
X656750D01*
Y289200D01*
X682750D01*
Y311200D01*
D02*
G37*
G36*
X539444Y326750D02*
X537057D01*
X534851Y325837D01*
X533163Y324149D01*
X532250Y321944D01*
Y319557D01*
X533163Y317351D01*
X534547Y315968D01*
Y289032D01*
X533913Y288399D01*
X533000Y286194D01*
Y283806D01*
X533913Y281601D01*
X535601Y279913D01*
X537807Y279000D01*
X540193D01*
X542399Y279913D01*
X544086Y281601D01*
X545000Y283806D01*
Y286194D01*
X544086Y288399D01*
X542703Y289782D01*
Y316718D01*
X543337Y317351D01*
X544250Y319557D01*
Y321944D01*
X543337Y324149D01*
X541649Y325837D01*
X539444Y326750D01*
D02*
G37*
G36*
X671750Y260495D02*
X667750D01*
X664878Y260117D01*
X662203Y259009D01*
X659905Y257245D01*
X658141Y254947D01*
X657033Y252272D01*
X656655Y249400D01*
X656977Y246952D01*
X656220Y246001D01*
X655954Y245828D01*
X557907D01*
X556899Y246837D01*
X554693Y247750D01*
X552307D01*
X550101Y246837D01*
X548414Y245149D01*
X547500Y242943D01*
Y240557D01*
X548414Y238351D01*
X550101Y236663D01*
X552307Y235750D01*
X554693D01*
X556899Y236663D01*
X557907Y237672D01*
X658313D01*
X658313Y237672D01*
X659874Y237982D01*
X661197Y238866D01*
X662157Y239826D01*
X662203Y239792D01*
X664878Y238683D01*
X667750Y238305D01*
X671750D01*
X674622Y238683D01*
X677298Y239792D01*
X679595Y241555D01*
X681358Y243853D01*
X682467Y246528D01*
X682845Y249400D01*
X682467Y252272D01*
X681358Y254947D01*
X679595Y257245D01*
X677298Y259009D01*
X674622Y260117D01*
X671750Y260495D01*
D02*
G37*
G36*
X18264Y239450D02*
X15236D01*
X12311Y238666D01*
X9689Y237152D01*
X7548Y235011D01*
X6034Y232389D01*
X5250Y229464D01*
Y226436D01*
X6034Y223511D01*
X7548Y220889D01*
X9689Y218748D01*
X12311Y217234D01*
X15236Y216450D01*
X18264D01*
X21189Y217234D01*
X23811Y218748D01*
X25952Y220889D01*
X27466Y223511D01*
X28250Y226436D01*
Y229464D01*
X27466Y232389D01*
X25952Y235011D01*
X23811Y237152D01*
X21189Y238666D01*
X18264Y239450D01*
D02*
G37*
G36*
X671750Y235095D02*
X667750D01*
X664878Y234717D01*
X662203Y233608D01*
X659905Y231845D01*
X658141Y229548D01*
X657033Y226872D01*
X656655Y224000D01*
X657033Y221128D01*
X658141Y218452D01*
X659905Y216155D01*
X662203Y214391D01*
X664878Y213283D01*
X667750Y212905D01*
X671750D01*
X674622Y213283D01*
X677298Y214391D01*
X679595Y216155D01*
X681358Y218452D01*
X682467Y221128D01*
X682845Y224000D01*
X682467Y226872D01*
X681358Y229548D01*
X679595Y231845D01*
X677298Y233608D01*
X674622Y234717D01*
X671750Y235095D01*
D02*
G37*
G36*
X595250Y215025D02*
X592378Y214647D01*
X589702Y213538D01*
X587405Y211775D01*
X585642Y209478D01*
X584533Y206802D01*
X584155Y203930D01*
Y199930D01*
X584533Y197058D01*
X585642Y194382D01*
X587405Y192085D01*
X589702Y190322D01*
X592378Y189213D01*
X595250Y188835D01*
X598122Y189213D01*
X600798Y190322D01*
X603095Y192085D01*
X604859Y194382D01*
X605967Y197058D01*
X606345Y199930D01*
Y203930D01*
X605967Y206802D01*
X604859Y209478D01*
X603095Y211775D01*
X600798Y213538D01*
X598122Y214647D01*
X595250Y215025D01*
D02*
G37*
G36*
X468250D02*
X465378Y214647D01*
X462702Y213538D01*
X460405Y211775D01*
X458642Y209478D01*
X457533Y206802D01*
X457155Y203930D01*
Y199930D01*
X457533Y197058D01*
X458642Y194382D01*
X460405Y192085D01*
X462702Y190322D01*
X465378Y189213D01*
X468250Y188835D01*
X471122Y189213D01*
X473797Y190322D01*
X476095Y192085D01*
X477859Y194382D01*
X478967Y197058D01*
X479345Y199930D01*
Y203930D01*
X478967Y206802D01*
X477859Y209478D01*
X476095Y211775D01*
X473797Y213538D01*
X471122Y214647D01*
X468250Y215025D01*
D02*
G37*
G36*
X417450D02*
X414578Y214647D01*
X411903Y213538D01*
X409605Y211775D01*
X407841Y209478D01*
X406733Y206802D01*
X406355Y203930D01*
Y199930D01*
X406733Y197058D01*
X407841Y194382D01*
X409605Y192085D01*
X411903Y190322D01*
X414578Y189213D01*
X417450Y188835D01*
X420322Y189213D01*
X422998Y190322D01*
X425295Y192085D01*
X427058Y194382D01*
X428167Y197058D01*
X428545Y199930D01*
Y203930D01*
X428167Y206802D01*
X427058Y209478D01*
X425295Y211775D01*
X422998Y213538D01*
X420322Y214647D01*
X417450Y215025D01*
D02*
G37*
G36*
X392050D02*
X389178Y214647D01*
X386502Y213538D01*
X384205Y211775D01*
X382441Y209478D01*
X381333Y206802D01*
X380955Y203930D01*
Y199930D01*
X381333Y197058D01*
X382441Y194382D01*
X384205Y192085D01*
X386502Y190322D01*
X389178Y189213D01*
X392050Y188835D01*
X394922Y189213D01*
X397598Y190322D01*
X399895Y192085D01*
X401659Y194382D01*
X402767Y197058D01*
X403145Y199930D01*
Y203930D01*
X402767Y206802D01*
X401659Y209478D01*
X399895Y211775D01*
X397598Y213538D01*
X394922Y214647D01*
X392050Y215025D01*
D02*
G37*
G36*
X366650D02*
X363778Y214647D01*
X361102Y213538D01*
X358805Y211775D01*
X357042Y209478D01*
X355933Y206802D01*
X355555Y203930D01*
Y199930D01*
X355933Y197058D01*
X357042Y194382D01*
X358805Y192085D01*
X361102Y190322D01*
X363778Y189213D01*
X366650Y188835D01*
X369522Y189213D01*
X372197Y190322D01*
X374495Y192085D01*
X376259Y194382D01*
X377367Y197058D01*
X377745Y199930D01*
Y203930D01*
X377367Y206802D01*
X376259Y209478D01*
X374495Y211775D01*
X372197Y213538D01*
X369522Y214647D01*
X366650Y215025D01*
D02*
G37*
G36*
X620443Y154500D02*
X618056D01*
X615851Y153587D01*
X614163Y151899D01*
X613250Y149693D01*
Y147306D01*
X614163Y145101D01*
X615554Y143710D01*
Y137526D01*
X615103Y137338D01*
X612805Y135575D01*
X611041Y133278D01*
X609933Y130602D01*
X609555Y127730D01*
Y123730D01*
X609933Y120858D01*
X611041Y118182D01*
X612805Y115885D01*
X615103Y114122D01*
X617778Y113013D01*
X620650Y112635D01*
X623522Y113013D01*
X626198Y114122D01*
X628495Y115885D01*
X630258Y118182D01*
X631367Y120858D01*
X631745Y123730D01*
Y127730D01*
X631367Y130602D01*
X630258Y133278D01*
X628495Y135575D01*
X626198Y137338D01*
X623711Y138368D01*
Y144476D01*
X624337Y145101D01*
X625250Y147306D01*
Y149693D01*
X624337Y151899D01*
X622649Y153587D01*
X620443Y154500D01*
D02*
G37*
G36*
X596194Y162250D02*
X593806D01*
X591601Y161337D01*
X589913Y159649D01*
X589000Y157444D01*
Y155056D01*
X589913Y152851D01*
X591047Y151718D01*
Y137895D01*
X589702Y137338D01*
X587405Y135575D01*
X585642Y133278D01*
X584533Y130602D01*
X584155Y127730D01*
Y123730D01*
X584533Y120858D01*
X585642Y118182D01*
X587405Y115885D01*
X589702Y114122D01*
X592378Y113013D01*
X595250Y112635D01*
X598122Y113013D01*
X600798Y114122D01*
X603095Y115885D01*
X604859Y118182D01*
X605967Y120858D01*
X606345Y123730D01*
Y127730D01*
X605967Y130602D01*
X604859Y133278D01*
X603095Y135575D01*
X600798Y137338D01*
X599203Y137999D01*
Y151968D01*
X600087Y152851D01*
X601000Y155056D01*
Y157444D01*
X600087Y159649D01*
X598399Y161337D01*
X596194Y162250D01*
D02*
G37*
G36*
X519050Y138825D02*
X516178Y138447D01*
X513503Y137338D01*
X511205Y135575D01*
X509441Y133278D01*
X508333Y130602D01*
X507955Y127730D01*
Y123730D01*
X508333Y120858D01*
X509441Y118182D01*
X511205Y115885D01*
X513503Y114122D01*
X516178Y113013D01*
X519050Y112635D01*
X521922Y113013D01*
X524598Y114122D01*
X526895Y115885D01*
X528658Y118182D01*
X529767Y120858D01*
X530145Y123730D01*
Y127730D01*
X529767Y130602D01*
X528658Y133278D01*
X526895Y135575D01*
X524598Y137338D01*
X521922Y138447D01*
X519050Y138825D01*
D02*
G37*
G36*
X493650D02*
X490778Y138447D01*
X488102Y137338D01*
X485805Y135575D01*
X484041Y133278D01*
X482933Y130602D01*
X482555Y127730D01*
Y123730D01*
X482933Y120858D01*
X484041Y118182D01*
X485805Y115885D01*
X488102Y114122D01*
X490778Y113013D01*
X493650Y112635D01*
X496522Y113013D01*
X499198Y114122D01*
X501495Y115885D01*
X503259Y118182D01*
X504367Y120858D01*
X504745Y123730D01*
Y127730D01*
X504367Y130602D01*
X503259Y133278D01*
X501495Y135575D01*
X499198Y137338D01*
X496522Y138447D01*
X493650Y138825D01*
D02*
G37*
G36*
X417450D02*
X414578Y138447D01*
X411903Y137338D01*
X409605Y135575D01*
X407841Y133278D01*
X406733Y130602D01*
X406355Y127730D01*
Y123730D01*
X406733Y120858D01*
X407841Y118182D01*
X409605Y115885D01*
X411903Y114122D01*
X414578Y113013D01*
X417450Y112635D01*
X420322Y113013D01*
X422998Y114122D01*
X425295Y115885D01*
X427058Y118182D01*
X428167Y120858D01*
X428545Y123730D01*
Y127730D01*
X428167Y130602D01*
X427058Y133278D01*
X425295Y135575D01*
X422998Y137338D01*
X420322Y138447D01*
X417450Y138825D01*
D02*
G37*
G36*
X392050D02*
X389178Y138447D01*
X386502Y137338D01*
X384205Y135575D01*
X382441Y133278D01*
X381333Y130602D01*
X380955Y127730D01*
Y123730D01*
X381333Y120858D01*
X382441Y118182D01*
X384205Y115885D01*
X386502Y114122D01*
X389178Y113013D01*
X392050Y112635D01*
X394922Y113013D01*
X397598Y114122D01*
X399895Y115885D01*
X401659Y118182D01*
X402767Y120858D01*
X403145Y123730D01*
Y127730D01*
X402767Y130602D01*
X401659Y133278D01*
X399895Y135575D01*
X397598Y137338D01*
X394922Y138447D01*
X392050Y138825D01*
D02*
G37*
G36*
X366650D02*
X363778Y138447D01*
X361102Y137338D01*
X358805Y135575D01*
X357042Y133278D01*
X355933Y130602D01*
X355555Y127730D01*
Y123730D01*
X355933Y120858D01*
X357042Y118182D01*
X358805Y115885D01*
X361102Y114122D01*
X363778Y113013D01*
X366650Y112635D01*
X369522Y113013D01*
X372197Y114122D01*
X374495Y115885D01*
X376259Y118182D01*
X377367Y120858D01*
X377745Y123730D01*
Y127730D01*
X377367Y130602D01*
X376259Y133278D01*
X374495Y135575D01*
X372197Y137338D01*
X369522Y138447D01*
X366650Y138825D01*
D02*
G37*
G36*
X519000Y38400D02*
X497000D01*
Y12400D01*
X519000D01*
Y38400D01*
D02*
G37*
G36*
X290400D02*
X268400D01*
Y12400D01*
X290400D01*
Y38400D01*
D02*
G37*
G36*
X635000Y38495D02*
X632128Y38117D01*
X629453Y37009D01*
X627155Y35245D01*
X625392Y32947D01*
X624283Y30272D01*
X623905Y27400D01*
Y23400D01*
X624283Y20528D01*
X625392Y17852D01*
X627155Y15555D01*
X629453Y13792D01*
X632128Y12683D01*
X635000Y12305D01*
X637872Y12683D01*
X640547Y13792D01*
X642845Y15555D01*
X644609Y17852D01*
X645717Y20528D01*
X646095Y23400D01*
Y27400D01*
X645717Y30272D01*
X644609Y32947D01*
X642845Y35245D01*
X640547Y37009D01*
X637872Y38117D01*
X635000Y38495D01*
D02*
G37*
G36*
X609600D02*
X606728Y38117D01*
X604053Y37009D01*
X601755Y35245D01*
X599991Y32947D01*
X598883Y30272D01*
X598505Y27400D01*
Y23400D01*
X598883Y20528D01*
X599991Y17852D01*
X601755Y15555D01*
X604053Y13792D01*
X606728Y12683D01*
X609600Y12305D01*
X612472Y12683D01*
X615148Y13792D01*
X617445Y15555D01*
X619208Y17852D01*
X620317Y20528D01*
X620695Y23400D01*
Y27400D01*
X620317Y30272D01*
X619208Y32947D01*
X617445Y35245D01*
X615148Y37009D01*
X612472Y38117D01*
X609600Y38495D01*
D02*
G37*
G36*
X584200D02*
X581328Y38117D01*
X578652Y37009D01*
X576355Y35245D01*
X574591Y32947D01*
X573483Y30272D01*
X573105Y27400D01*
Y23400D01*
X573483Y20528D01*
X574591Y17852D01*
X576355Y15555D01*
X578652Y13792D01*
X581328Y12683D01*
X584200Y12305D01*
X587072Y12683D01*
X589748Y13792D01*
X592045Y15555D01*
X593809Y17852D01*
X594917Y20528D01*
X595295Y23400D01*
Y27400D01*
X594917Y30272D01*
X593809Y32947D01*
X592045Y35245D01*
X589748Y37009D01*
X587072Y38117D01*
X584200Y38495D01*
D02*
G37*
G36*
X558800D02*
X555928Y38117D01*
X553252Y37009D01*
X550955Y35245D01*
X549192Y32947D01*
X548083Y30272D01*
X547705Y27400D01*
Y23400D01*
X548083Y20528D01*
X549192Y17852D01*
X550955Y15555D01*
X553252Y13792D01*
X555928Y12683D01*
X558800Y12305D01*
X561672Y12683D01*
X564347Y13792D01*
X566645Y15555D01*
X568409Y17852D01*
X569517Y20528D01*
X569895Y23400D01*
Y27400D01*
X569517Y30272D01*
X568409Y32947D01*
X566645Y35245D01*
X564347Y37009D01*
X561672Y38117D01*
X558800Y38495D01*
D02*
G37*
G36*
X533400D02*
X530528Y38117D01*
X527853Y37009D01*
X525555Y35245D01*
X523792Y32947D01*
X522683Y30272D01*
X522305Y27400D01*
Y23400D01*
X522683Y20528D01*
X523792Y17852D01*
X525555Y15555D01*
X527853Y13792D01*
X530528Y12683D01*
X533400Y12305D01*
X536272Y12683D01*
X538947Y13792D01*
X541245Y15555D01*
X543008Y17852D01*
X544117Y20528D01*
X544495Y23400D01*
Y27400D01*
X544117Y30272D01*
X543008Y32947D01*
X541245Y35245D01*
X538947Y37009D01*
X536272Y38117D01*
X533400Y38495D01*
D02*
G37*
G36*
X355600D02*
X352728Y38117D01*
X350052Y37009D01*
X347755Y35245D01*
X345992Y32947D01*
X344883Y30272D01*
X344505Y27400D01*
Y23400D01*
X344883Y20528D01*
X345992Y17852D01*
X347755Y15555D01*
X350052Y13792D01*
X352728Y12683D01*
X355600Y12305D01*
X358472Y12683D01*
X361147Y13792D01*
X363445Y15555D01*
X365209Y17852D01*
X366317Y20528D01*
X366695Y23400D01*
Y27400D01*
X366317Y30272D01*
X365209Y32947D01*
X363445Y35245D01*
X361147Y37009D01*
X358472Y38117D01*
X355600Y38495D01*
D02*
G37*
G36*
X304800D02*
X301928Y38117D01*
X299252Y37009D01*
X296955Y35245D01*
X295191Y32947D01*
X294083Y30272D01*
X293705Y27400D01*
Y23400D01*
X294083Y20528D01*
X295191Y17852D01*
X296955Y15555D01*
X299252Y13792D01*
X301928Y12683D01*
X304800Y12305D01*
X307672Y12683D01*
X310347Y13792D01*
X312645Y15555D01*
X314408Y17852D01*
X315517Y20528D01*
X315895Y23400D01*
Y27400D01*
X315517Y30272D01*
X314408Y32947D01*
X312645Y35245D01*
X310347Y37009D01*
X307672Y38117D01*
X304800Y38495D01*
D02*
G37*
G36*
X85943Y422500D02*
X83556D01*
X81351Y421587D01*
X79843Y420078D01*
X72657D01*
X72149Y420587D01*
X69943Y421500D01*
X67557D01*
X65351Y420587D01*
X63663Y418899D01*
X62750Y416693D01*
Y414306D01*
X63663Y412101D01*
X65351Y410414D01*
X67557Y409500D01*
X69943D01*
X72149Y410414D01*
X73657Y411922D01*
X80843D01*
X81351Y411413D01*
X83556Y410500D01*
X85943D01*
X88149Y411413D01*
X89837Y413101D01*
X90750Y415307D01*
Y417693D01*
X89837Y419899D01*
X88149Y421587D01*
X85943Y422500D01*
D02*
G37*
%LPD*%
D11*
X66000Y486250D02*
X164000D01*
X176960Y499210D01*
X37750Y458000D02*
X66000Y486250D01*
X37750Y377150D02*
Y458000D01*
X16350Y355750D02*
X37750Y377150D01*
X45496Y371246D02*
X48500Y374250D01*
X43250Y376993D02*
Y455500D01*
X30250Y363993D02*
X43250Y376993D01*
Y455500D02*
X68000Y480250D01*
X45496Y370754D02*
Y371246D01*
X48500Y374250D02*
Y452250D01*
X68000Y480250D02*
X108750D01*
X70500Y474250D02*
X104851D01*
X48500Y452250D02*
X70500Y474250D01*
X108964Y336123D02*
Y340092D01*
X109858Y328358D02*
X115542Y334042D01*
Y352542D01*
X97458Y328358D02*
X109858D01*
X108198Y335358D02*
X108964Y336123D01*
X90250Y302250D02*
X94746Y297754D01*
X120469D02*
X120746Y298031D01*
X101009Y303754D02*
X101306Y304051D01*
X148199D01*
X94746Y297754D02*
X120469D01*
X93057Y311307D02*
X100553D01*
X120746Y298031D02*
X146469D01*
X100553Y311307D02*
X101000Y311754D01*
X90250Y308500D02*
X93057Y311307D01*
X98250Y368750D02*
X112000Y382500D01*
X88754Y368750D02*
X98250D01*
X112000Y382500D02*
X118750D01*
X209000Y446000D02*
X230235D01*
X115542Y352542D02*
X209000Y446000D01*
X86250Y274832D02*
Y317150D01*
X97458Y328358D01*
X108964Y340092D02*
X109068Y340196D01*
Y349682D01*
X84750Y272250D02*
Y273332D01*
X86250Y274832D01*
X90250Y302250D02*
Y308500D01*
X84812Y272313D02*
X100938D01*
X101000Y272375D01*
X84750Y272250D02*
X84812Y272313D01*
X384750Y395000D02*
X385000Y394750D01*
X384750Y395000D02*
Y494750D01*
X387681Y499273D02*
X391160Y502753D01*
X384750Y494750D02*
X387681Y497681D01*
X391160Y502753D02*
Y508000D01*
X387681Y497681D02*
Y499273D01*
X298663Y108730D02*
X319072Y88322D01*
X64765Y214235D02*
X66937D01*
X67172Y214000D02*
X150515D01*
X64000Y215000D02*
X64765Y214235D01*
X66937D02*
X67172Y214000D01*
X150515D02*
X177515Y241000D01*
X124333Y292031D02*
X144719D01*
X212000Y136000D02*
Y224750D01*
X144719Y292031D02*
X212000Y224750D01*
X217250Y158757D02*
Y227250D01*
X146469Y298031D02*
X217250Y227250D01*
X149250Y311000D02*
X227250Y233000D01*
X125000Y311000D02*
X149250D01*
X227250Y174050D02*
Y233000D01*
X222000Y170163D02*
Y230250D01*
X148199Y304051D02*
X222000Y230250D01*
X69250Y416000D02*
X84250D01*
X68750Y415500D02*
X69250Y416000D01*
X84250D02*
X84750Y416500D01*
X218125Y355247D02*
X218250Y355122D01*
Y277250D02*
Y355122D01*
X224250Y274650D02*
Y426750D01*
Y274650D02*
X261400Y237500D01*
X218125Y355247D02*
Y439625D01*
X218500Y440000D01*
X230235Y446000D02*
X266235Y410000D01*
X395500Y296000D02*
X432000Y332500D01*
X340680Y320070D02*
Y507680D01*
Y320070D02*
X340750Y320000D01*
X340360Y508000D02*
X340680Y507680D01*
X320250Y303000D02*
X387250D01*
X316250Y296000D02*
X395500D01*
X304195Y308055D02*
X316250Y296000D01*
X293000Y298750D02*
X307750Y284000D01*
X405000D02*
X493250Y372250D01*
X304000Y278750D02*
X409250D01*
X307750Y284000D02*
X405000D01*
X400250Y290000D02*
X433000Y322750D01*
X287000Y295750D02*
X304000Y278750D01*
X311500Y290000D02*
X400250D01*
X409250Y278750D02*
X496000Y365500D01*
X298000Y303500D02*
X311500Y290000D01*
X406375Y240875D02*
X495875D01*
X496000Y365500D02*
X601000D01*
X406250Y241000D02*
X406375Y240875D01*
X269118Y247868D02*
X279250Y258000D01*
X496000D01*
X493250Y372250D02*
X610000D01*
X101281Y319750D02*
X116250D01*
X101000Y320031D02*
X101281Y319750D01*
X187843Y241000D02*
X208000Y220843D01*
Y124750D02*
Y220843D01*
X177515Y241000D02*
X187843D01*
X304195Y308055D02*
Y407055D01*
X213360Y508000D02*
X215078Y506282D01*
Y496172D02*
Y506282D01*
Y496172D02*
X304195Y407055D01*
X88754Y358250D02*
X100500D01*
X109068Y349682D01*
X538625Y285375D02*
X539000Y285000D01*
X538625Y285375D02*
Y320375D01*
X538250Y320750D02*
X538625Y320375D01*
X505000Y214000D02*
Y320250D01*
X504250Y321000D02*
X505000Y320250D01*
Y214000D02*
X505500Y213500D01*
X255500Y253000D02*
X270000Y238500D01*
X277250D02*
X303850Y211900D01*
X270000Y238500D02*
X277250D01*
X277967Y246033D02*
Y246250D01*
Y246033D02*
X308070Y215930D01*
X303850Y192400D02*
Y211900D01*
X649500Y411750D02*
Y424750D01*
X610000Y372250D02*
X649500Y411750D01*
X601000Y365500D02*
X601250Y365250D01*
X521000Y222899D02*
Y320000D01*
X521250Y320250D01*
X521000Y222899D02*
X531899Y212000D01*
X528750Y257500D02*
X529250Y258000D01*
X647000D01*
X237000Y375000D02*
X237500Y374500D01*
X273000D01*
X293000Y354500D01*
X495875Y240875D02*
X496000Y240750D01*
X663962Y274800D02*
X669750D01*
X660158Y270997D02*
X663962Y274800D01*
X647000Y258000D02*
X659997Y270997D01*
X660158D01*
X553500Y241750D02*
X658313D01*
X665963Y249400D01*
X669750D01*
X119600Y459500D02*
X217768D01*
X104851Y474250D02*
X119600Y459500D01*
X240118Y366500D02*
X272500D01*
X287000Y352000D01*
X261400Y130600D02*
Y237500D01*
X230000Y329000D02*
X230250Y329250D01*
X230000Y281082D02*
Y329000D01*
X232000Y278000D02*
Y279082D01*
X230000Y281082D02*
X232000Y279082D01*
X287000Y295750D02*
Y352000D01*
X293000Y298750D02*
Y354500D01*
X266235Y410000D02*
X281854D01*
X298000Y303500D02*
Y401827D01*
X311500Y311750D02*
Y411642D01*
Y311750D02*
X320250Y303000D01*
X227760Y495382D02*
X311500Y411642D01*
X227760Y495382D02*
Y513240D01*
X290000Y401341D02*
Y401854D01*
X192639Y503321D02*
X196505D01*
X281854Y410000D02*
X290000Y401854D01*
X187960Y508000D02*
X192639Y503321D01*
X196505D02*
X298000Y401827D01*
X217250Y523750D02*
X227760Y513240D01*
X4850Y263857D02*
Y335113D01*
X14000Y253600D02*
Y254707D01*
X4850Y263857D02*
X14000Y254707D01*
X4850Y335113D02*
X11587Y341850D01*
X186154Y523750D02*
X217250D01*
X176960Y514556D02*
X186154Y523750D01*
X176960Y499210D02*
Y514556D01*
X18714Y341850D02*
X30250Y353387D01*
Y363993D01*
X11587Y341850D02*
X18714D01*
X437385Y3385D02*
X452741D01*
X437250Y3250D02*
X437385Y3385D01*
X452741D02*
X468200Y18844D01*
X330200Y20222D02*
X347172Y3250D01*
X437250D01*
X224020Y108730D02*
X298663D01*
X208000Y124750D02*
X224020Y108730D01*
X227250Y174050D02*
X249900Y151400D01*
X233460Y142440D02*
Y144097D01*
X236000Y146637D01*
X233460Y142440D02*
X249900Y126000D01*
X236000Y146637D02*
Y156163D01*
X222000Y170163D02*
X236000Y156163D01*
X217250Y158757D02*
X224500Y151507D01*
Y151400D02*
Y151507D01*
X222000Y126000D02*
X224500D01*
X212000Y136000D02*
X222000Y126000D01*
X261400Y130600D02*
X279270Y112730D01*
X265303Y64447D02*
X401244D01*
X264750Y65000D02*
X265303Y64447D01*
X279270Y112730D02*
X341770D01*
X367250Y87250D01*
X401244Y64447D02*
X455350Y118552D01*
X328550Y189450D02*
Y208200D01*
X320821Y215930D02*
X328550Y208200D01*
X331000Y165250D02*
X366750D01*
X303850Y192400D02*
X331000Y165250D01*
X468200Y34200D02*
X533450Y99450D01*
X330200Y20222D02*
Y25400D01*
X468200Y18844D02*
Y34200D01*
X57500Y58500D02*
Y87500D01*
X533450Y99450D02*
Y106418D01*
X539762Y112730D01*
X549006D01*
X555450Y134730D02*
X592970Y172250D01*
X555450Y119174D02*
Y134730D01*
X549006Y112730D02*
X555450Y119174D01*
X592970Y172250D02*
X620650Y199930D01*
Y201930D01*
X569750Y265750D02*
Y319250D01*
Y265750D02*
X569750Y265750D01*
X561750Y265750D02*
Y318979D01*
X116250Y319750D02*
X125000Y311000D01*
X12500Y279100D02*
X13600Y278000D01*
X308070Y215930D02*
X320821D01*
X338000Y180000D02*
X549920D01*
X328550Y189450D02*
X338000Y180000D01*
X549920D02*
X569850Y199930D01*
X609000Y379000D02*
X632000Y402000D01*
X578000Y379000D02*
X609000D01*
X360750Y497743D02*
X365760Y502753D01*
X360750Y437750D02*
Y497743D01*
X365760Y502753D02*
Y508000D01*
X561750Y265750D02*
X561750Y265750D01*
X632000Y402000D02*
Y454000D01*
X452904Y503704D02*
X457200Y508000D01*
X426000Y419750D02*
Y480000D01*
X449704Y503704D01*
X452904D01*
X405500Y399250D02*
X426000Y419750D01*
X595125Y125855D02*
Y156125D01*
X595000Y156250D02*
X595125Y156125D01*
X619250Y148500D02*
X619633Y148117D01*
Y126747D02*
Y148117D01*
Y126747D02*
X620650Y125730D01*
X595125Y125855D02*
X595250Y125730D01*
X660704Y435954D02*
X668954D01*
X649500Y424750D02*
X660704Y435954D01*
X668954D02*
X671250Y438250D01*
X569850Y199930D02*
Y201930D01*
X314730Y507770D02*
X314960Y508000D01*
X547250Y422250D02*
X612250D01*
X507191Y406441D02*
Y507191D01*
X508000Y508000D01*
X507000Y406250D02*
X507191Y406441D01*
X482500Y406500D02*
X482550Y406550D01*
Y507950D02*
X482600Y508000D01*
X482550Y406550D02*
Y507950D01*
X108750Y480250D02*
X123000Y466000D01*
X491802Y274271D02*
X494250Y276719D01*
X491802Y274000D02*
Y274271D01*
X494250Y276719D02*
Y314000D01*
X604750Y284750D02*
X605000Y284500D01*
X621250D01*
X636950Y300200D01*
X669750D01*
X455350Y132508D02*
X463842Y141000D01*
X478750D01*
X455350Y118552D02*
Y132508D01*
D12*
X100188Y339188D02*
X101000D01*
X78441Y317441D02*
X100188Y339188D01*
X52159Y317441D02*
X78441D01*
X94595Y374750D02*
X111157Y391312D01*
X113175D01*
X141363Y419500D01*
X159750D01*
X39000Y330600D02*
X52159Y317441D01*
D14*
X29250Y323250D02*
Y335528D01*
Y323250D02*
X38500Y314000D01*
Y302250D02*
Y314000D01*
X36972Y343250D02*
X46928D01*
X29250Y335528D02*
X36972Y343250D01*
X38500Y302250D02*
X55750Y285000D01*
Y201750D02*
Y285000D01*
X37250Y183250D02*
X55750Y201750D01*
X179938Y246617D02*
X180321Y247000D01*
X228000Y439750D02*
X254367Y413383D01*
Y411883D02*
X254750Y411500D01*
X254367Y411883D02*
Y413383D01*
X176061Y246617D02*
X179938D01*
X157076Y227633D02*
X176061Y246617D01*
X319000Y382000D02*
Y407035D01*
X46928Y343250D02*
X54650Y350972D01*
X54750Y449750D02*
X72000Y467000D01*
X54650Y365907D02*
X54750Y366007D01*
Y449750D01*
X54650Y350972D02*
Y365907D01*
X152750Y227250D02*
X153133Y227633D01*
X157076D01*
X285100Y147000D02*
X441459D01*
X442459Y148000D01*
X443000D01*
X272383Y159718D02*
X285100Y147000D01*
X72000Y467000D02*
X81000D01*
X272000Y164000D02*
X272383Y163617D01*
Y159718D02*
Y163617D01*
X28000Y183250D02*
X37250D01*
D58*
X547250Y422250D02*
D03*
Y467250D02*
D03*
X612250D02*
D03*
X456250Y422250D02*
D03*
X521250D02*
D03*
Y467250D02*
D03*
D59*
X612250Y422250D02*
D03*
X456250Y467250D02*
D03*
D71*
X606000Y311380D02*
Y324235D01*
X602485Y327750D02*
X606000Y324235D01*
X67150Y330350D02*
X80754Y343954D01*
Y375254D01*
X103312Y397812D01*
X358000Y57000D02*
X379087Y35913D01*
X258750Y57000D02*
X358000D01*
X379087Y27313D02*
X381000Y25400D01*
X379087Y27313D02*
Y35913D01*
X407946Y461146D02*
Y484945D01*
X103312Y397812D02*
X110483D01*
X415500Y339500D02*
Y393750D01*
X87000Y152750D02*
X162213D01*
X180000Y235000D02*
X185358D01*
X200500Y134515D02*
Y219858D01*
X185358Y235000D02*
X200500Y219858D01*
X554250Y327750D02*
X602485D01*
X245000Y406500D02*
X248473Y403027D01*
X271973D01*
X273000Y402000D01*
X295500Y437500D02*
Y439750D01*
X276000Y459250D02*
X295500Y439750D01*
X196985Y131000D02*
X200500Y134515D01*
X183963Y131000D02*
X196985D01*
X274053Y70447D02*
X390697D01*
X267500Y77000D02*
X274053Y70447D01*
X223000Y92750D02*
X258750Y57000D01*
X203861Y92750D02*
X223000D01*
X390697Y70447D02*
X397500Y77250D01*
X162213Y152750D02*
X183963Y131000D01*
D73*
X42150Y227950D02*
D03*
Y253350D02*
D03*
Y278750D02*
D03*
X16750Y227950D02*
D03*
Y253350D02*
D03*
X223500Y151400D02*
D03*
X248900Y126000D02*
D03*
X223500D02*
D03*
X41750Y355750D02*
D03*
X16350D02*
D03*
X67150Y330350D02*
D03*
X41750D02*
D03*
X16350D02*
D03*
D74*
X16750Y278750D02*
D03*
D75*
X248900Y151400D02*
D03*
X67150Y355750D02*
D03*
D76*
X28000Y139250D02*
D03*
Y183250D02*
D03*
D77*
X63400Y13500D02*
D03*
X38000D02*
D03*
X187960Y508000D02*
D03*
X213360D02*
D03*
X238760D02*
D03*
X264160D02*
D03*
X289560D02*
D03*
X314960D02*
D03*
X340360D02*
D03*
X365760D02*
D03*
X391160D02*
D03*
X457200Y25400D02*
D03*
X431800D02*
D03*
X406400D02*
D03*
X381000D02*
D03*
X355600D02*
D03*
X330200D02*
D03*
X304800D02*
D03*
X609600Y508000D02*
D03*
X584200D02*
D03*
X558800D02*
D03*
X533400D02*
D03*
X508000D02*
D03*
X482600D02*
D03*
X457200D02*
D03*
X635000Y25400D02*
D03*
X609600D02*
D03*
X584200D02*
D03*
X558800D02*
D03*
X533400D02*
D03*
X595250Y201930D02*
D03*
X569850D02*
D03*
X544450D02*
D03*
X519050D02*
D03*
X493650D02*
D03*
X468250D02*
D03*
X442850D02*
D03*
X417450D02*
D03*
X392050D02*
D03*
X366650D02*
D03*
X341250D02*
D03*
X315850D02*
D03*
X290450D02*
D03*
X620650Y125730D02*
D03*
X595250D02*
D03*
X569850D02*
D03*
X544450D02*
D03*
X519050D02*
D03*
X493650D02*
D03*
X468250D02*
D03*
X442850D02*
D03*
X417450D02*
D03*
X392050D02*
D03*
X366650D02*
D03*
X341250D02*
D03*
X315850D02*
D03*
X290450D02*
D03*
D78*
X12600Y13500D02*
D03*
X416560Y508000D02*
D03*
X279400Y25400D02*
D03*
X635000Y508000D02*
D03*
X508000Y25400D02*
D03*
X620650Y201930D02*
D03*
D79*
X669750Y224000D02*
D03*
Y249400D02*
D03*
Y274800D02*
D03*
X671250Y412850D02*
D03*
Y438250D02*
D03*
D80*
X669750Y300200D02*
D03*
X671250Y463650D02*
D03*
D81*
X152400Y508000D02*
D03*
D82*
X139700Y25400D02*
D03*
X660400Y76200D02*
D03*
Y355600D02*
D03*
D83*
X22625Y449000D02*
D03*
Y383000D02*
D03*
D84*
X45496Y370754D02*
D03*
X606000Y311380D02*
D03*
X101000Y339188D02*
D03*
X108198Y335358D02*
D03*
X101000Y311754D02*
D03*
X101009Y303754D02*
D03*
X94595Y374750D02*
D03*
X88754Y368750D02*
D03*
X84750Y272250D02*
D03*
X27000Y90500D02*
D03*
X408000Y485000D02*
D03*
X407891Y460787D02*
D03*
X396250Y459750D02*
D03*
X319072Y88322D02*
D03*
X64000Y215000D02*
D03*
X124000Y220000D02*
D03*
X180321Y247000D02*
D03*
X110483Y397812D02*
D03*
X88754Y358250D02*
D03*
X84750Y416500D02*
D03*
X218250Y277250D02*
D03*
X224250Y426750D02*
D03*
X159750Y419500D02*
D03*
X254750Y411500D02*
D03*
X218500Y440000D02*
D03*
X415500Y339500D02*
D03*
X432000Y332500D02*
D03*
X340750Y320000D02*
D03*
X387250Y303000D02*
D03*
X406250Y241000D02*
D03*
X433000Y322750D02*
D03*
X64000Y229000D02*
D03*
X87000Y152750D02*
D03*
X101000Y320031D02*
D03*
Y272375D02*
D03*
X124333Y292031D02*
D03*
X538250Y320750D02*
D03*
X504250Y321000D02*
D03*
X269118Y247868D02*
D03*
X277967Y246250D02*
D03*
X640000Y411500D02*
D03*
X601250Y365250D02*
D03*
X521250Y320250D02*
D03*
X528750Y257500D02*
D03*
X513750Y268750D02*
D03*
X237000Y367000D02*
D03*
Y375000D02*
D03*
X496000Y240750D02*
D03*
Y258000D02*
D03*
X505500Y213500D02*
D03*
X539000Y285000D02*
D03*
X553500Y241750D02*
D03*
X217768Y459500D02*
D03*
X255500Y253000D02*
D03*
X271250Y289000D02*
D03*
X230250Y329250D02*
D03*
X232000Y278000D02*
D03*
X273000Y402000D02*
D03*
X245000Y406500D02*
D03*
X228000Y439750D02*
D03*
X318500Y425250D02*
D03*
X319000Y382000D02*
D03*
X290000Y401341D02*
D03*
X295500Y437500D02*
D03*
X276000Y459250D02*
D03*
X531899Y212000D02*
D03*
X14750Y318000D02*
D03*
X299500Y480500D02*
D03*
X22000Y401000D02*
D03*
Y410000D02*
D03*
Y418000D02*
D03*
Y434000D02*
D03*
X118750Y382500D02*
D03*
X61750Y380750D02*
D03*
X121500Y206250D02*
D03*
X264750Y65000D02*
D03*
X180000Y235000D02*
D03*
X152750Y227250D02*
D03*
X354430Y83820D02*
D03*
X366750Y165250D02*
D03*
X95000Y110000D02*
D03*
X57500Y87500D02*
D03*
X301500Y81250D02*
D03*
X267500Y77000D02*
D03*
X67500Y40500D02*
D03*
X95750Y180000D02*
D03*
X178250Y166000D02*
D03*
X57500Y58500D02*
D03*
X569750Y319250D02*
D03*
X554250Y327750D02*
D03*
X561750Y319250D02*
D03*
X68750Y415500D02*
D03*
X180500Y203000D02*
D03*
X272000Y164000D02*
D03*
X491802Y274000D02*
D03*
X183500Y303000D02*
D03*
X578000Y379000D02*
D03*
X415500Y393750D02*
D03*
X377250Y467250D02*
D03*
X22000Y426000D02*
D03*
Y441000D02*
D03*
Y392000D02*
D03*
X561750Y265750D02*
D03*
X569750D02*
D03*
X360750Y437750D02*
D03*
X632000Y454000D02*
D03*
X123000Y466000D02*
D03*
X81000Y467000D02*
D03*
X433000Y467500D02*
D03*
X577000Y234000D02*
D03*
X28000Y518250D02*
D03*
X595000Y156250D02*
D03*
X577750Y284750D02*
D03*
X443000Y148000D02*
D03*
X619250Y148500D02*
D03*
X150250Y269000D02*
D03*
X367250Y87250D02*
D03*
X604750Y284750D02*
D03*
X353000Y450000D02*
D03*
X396750Y432750D02*
D03*
X433500Y293000D02*
D03*
X13250Y482750D02*
D03*
X397500Y77250D02*
D03*
X385000Y394750D02*
D03*
X405500Y399250D02*
D03*
X478750Y141000D02*
D03*
X494250Y314000D02*
D03*
X507000Y406250D02*
D03*
X482500Y406500D02*
D03*
M02*
