G04*
G04 #@! TF.GenerationSoftware,Altium Limited,Altium Designer,23.2.1 (34)*
G04*
G04 Layer_Color=16777215*
%FSLAX44Y44*%
%MOMM*%
G71*
G04*
G04 #@! TF.SameCoordinates,4F847AC2-02D0-4AD0-BDAF-0AB3E8A313E0*
G04*
G04*
G04 #@! TF.FilePolarity,Positive*
G04*
G01*
G75*
%ADD12C,0.3000*%
D12*
X767413Y341066D02*
X756750D01*
Y333068D01*
X762082D01*
X756750D01*
Y325071D01*
X772745D02*
X778076D01*
X775411D01*
Y335734D01*
X772745D01*
X786074Y325071D02*
X791405D01*
X788740D01*
Y341066D01*
X786074D01*
X807400Y325071D02*
X802069D01*
X799403Y327737D01*
Y333068D01*
X802069Y335734D01*
X807400D01*
X810066Y333068D01*
Y330402D01*
X799403D01*
X815398Y325071D02*
X823395D01*
X826061Y327737D01*
X823395Y330402D01*
X818063D01*
X815398Y333068D01*
X818063Y335734D01*
X826061D01*
X756750Y312006D02*
X767413Y301343D01*
X756750D02*
X767413Y312006D01*
X756750Y306675D02*
X767413D01*
X762082Y301343D02*
Y312006D01*
X772745Y298677D02*
Y301343D01*
X775411D01*
Y298677D01*
X772745D01*
X796737Y312006D02*
X794071Y314672D01*
X788740D01*
X786074Y312006D01*
Y301343D01*
X788740Y298677D01*
X794071D01*
X796737Y301343D01*
Y306675D01*
X791405D01*
X802069Y314672D02*
X812732D01*
X807400D01*
Y298677D01*
X826061Y314672D02*
X820729D01*
X818063Y312006D01*
Y301343D01*
X820729Y298677D01*
X826061D01*
X828727Y301343D01*
Y312006D01*
X826061Y314672D01*
X850053Y306675D02*
X860716D01*
X882043Y314672D02*
X892706D01*
X887374D01*
Y298677D01*
X900703D02*
X906035D01*
X908701Y301343D01*
Y306675D01*
X906035Y309340D01*
X900703D01*
X898037Y306675D01*
Y301343D01*
X900703Y298677D01*
X914032Y293346D02*
Y309340D01*
X922030D01*
X924696Y306675D01*
Y301343D01*
X922030Y298677D01*
X914032D01*
X954019Y314672D02*
X948688D01*
X946022Y312006D01*
Y301343D01*
X948688Y298677D01*
X954019D01*
X956685Y301343D01*
Y312006D01*
X954019Y314672D01*
X962017Y309340D02*
X967348Y298677D01*
X972680Y309340D01*
X986009Y298677D02*
X980677D01*
X978012Y301343D01*
Y306675D01*
X980677Y309340D01*
X986009D01*
X988675Y306675D01*
Y304009D01*
X978012D01*
X994006Y309340D02*
Y298677D01*
Y304009D01*
X996672Y306675D01*
X999338Y309340D01*
X1002004D01*
X1010001Y298677D02*
X1015333D01*
X1012667D01*
Y314672D01*
X1010001D01*
X1025996Y309340D02*
X1031328D01*
X1033993Y306675D01*
Y298677D01*
X1025996D01*
X1023330Y301343D01*
X1025996Y304009D01*
X1033993D01*
X1039325Y309340D02*
Y301343D01*
X1041991Y298677D01*
X1049988D01*
Y296011D01*
X1047322Y293346D01*
X1044657D01*
X1049988Y298677D02*
Y309340D01*
X756750Y280281D02*
X767413Y269618D01*
X756750D02*
X767413Y280281D01*
X756750Y274949D02*
X767413D01*
X762082Y269618D02*
Y280281D01*
X772745Y266952D02*
Y269618D01*
X775411D01*
Y266952D01*
X772745D01*
X796737Y280281D02*
X794071Y282947D01*
X788740D01*
X786074Y280281D01*
Y269618D01*
X788740Y266952D01*
X794071D01*
X796737Y269618D01*
Y274949D01*
X791405D01*
X802069Y282947D02*
X812732D01*
X807400D01*
Y266952D01*
X818063D02*
Y282947D01*
X826061D01*
X828727Y280281D01*
Y274949D01*
X826061Y272283D01*
X818063D01*
X850053Y274949D02*
X860716D01*
X882043Y282947D02*
X892706D01*
X887374D01*
Y266952D01*
X900703D02*
X906035D01*
X908701Y269618D01*
Y274949D01*
X906035Y277615D01*
X900703D01*
X898037Y274949D01*
Y269618D01*
X900703Y266952D01*
X914032Y261620D02*
Y277615D01*
X922030D01*
X924696Y274949D01*
Y269618D01*
X922030Y266952D01*
X914032D01*
X962017D02*
Y282947D01*
X970014D01*
X972680Y280281D01*
Y274949D01*
X970014Y272283D01*
X962017D01*
X980677Y277615D02*
X986009D01*
X988675Y274949D01*
Y266952D01*
X980677D01*
X978012Y269618D01*
X980677Y272283D01*
X988675D01*
X994006Y266952D02*
X1002004D01*
X1004670Y269618D01*
X1002004Y272283D01*
X996672D01*
X994006Y274949D01*
X996672Y277615D01*
X1004670D01*
X1012667Y280281D02*
Y277615D01*
X1010001D01*
X1015333D01*
X1012667D01*
Y269618D01*
X1015333Y266952D01*
X1031328D02*
X1025996D01*
X1023330Y269618D01*
Y274949D01*
X1025996Y277615D01*
X1031328D01*
X1033993Y274949D01*
Y272283D01*
X1023330D01*
X756750Y248555D02*
X767413Y237892D01*
X756750D02*
X767413Y248555D01*
X756750Y243224D02*
X767413D01*
X762082Y237892D02*
Y248555D01*
X772745Y235226D02*
Y237892D01*
X775411D01*
Y235226D01*
X772745D01*
X796737Y248555D02*
X794071Y251221D01*
X788740D01*
X786074Y248555D01*
Y237892D01*
X788740Y235226D01*
X794071D01*
X796737Y237892D01*
Y243224D01*
X791405D01*
X802069Y251221D02*
X812732D01*
X807400D01*
Y235226D01*
X828727Y248555D02*
X826061Y251221D01*
X820729D01*
X818063Y248555D01*
Y245890D01*
X820729Y243224D01*
X826061D01*
X828727Y240558D01*
Y237892D01*
X826061Y235226D01*
X820729D01*
X818063Y237892D01*
X850053Y243224D02*
X860716D01*
X882043Y251221D02*
X892706D01*
X887374D01*
Y235226D01*
X900703D02*
X906035D01*
X908701Y237892D01*
Y243224D01*
X906035Y245890D01*
X900703D01*
X898037Y243224D01*
Y237892D01*
X900703Y235226D01*
X914032Y229895D02*
Y245890D01*
X922030D01*
X924696Y243224D01*
Y237892D01*
X922030Y235226D01*
X914032D01*
X956685Y248555D02*
X954019Y251221D01*
X948688D01*
X946022Y248555D01*
Y245890D01*
X948688Y243224D01*
X954019D01*
X956685Y240558D01*
Y237892D01*
X954019Y235226D01*
X948688D01*
X946022Y237892D01*
X964683Y235226D02*
X970014D01*
X972680Y237892D01*
Y243224D01*
X970014Y245890D01*
X964683D01*
X962017Y243224D01*
Y237892D01*
X964683Y235226D01*
X978012D02*
X983343D01*
X980677D01*
Y251221D01*
X978012D01*
X1002004D02*
Y235226D01*
X994006D01*
X991341Y237892D01*
Y243224D01*
X994006Y245890D01*
X1002004D01*
X1015333Y235226D02*
X1010001D01*
X1007335Y237892D01*
Y243224D01*
X1010001Y245890D01*
X1015333D01*
X1017999Y243224D01*
Y240558D01*
X1007335D01*
X1023330Y245890D02*
Y235226D01*
Y240558D01*
X1025996Y243224D01*
X1028662Y245890D01*
X1031328D01*
X756750Y216830D02*
X767413Y206167D01*
X756750D02*
X767413Y216830D01*
X756750Y211499D02*
X767413D01*
X762082Y206167D02*
Y216830D01*
X772745Y203501D02*
Y206167D01*
X775411D01*
Y203501D01*
X772745D01*
X796737Y216830D02*
X794071Y219496D01*
X788740D01*
X786074Y216830D01*
Y206167D01*
X788740Y203501D01*
X794071D01*
X796737Y206167D01*
Y211499D01*
X791405D01*
X802069Y219496D02*
X812732D01*
X807400D01*
Y203501D01*
X818063Y219496D02*
Y203501D01*
X828727D01*
X850053Y211499D02*
X860716D01*
X882043Y219496D02*
Y203501D01*
X892706D01*
X898037D02*
X903369D01*
X900703D01*
Y219496D01*
X898037Y216830D01*
X932693Y203501D02*
X927361Y208833D01*
Y214164D01*
X932693Y219496D01*
X940690Y203501D02*
Y219496D01*
X948688D01*
X951354Y216830D01*
Y211499D01*
X948688Y208833D01*
X940690D01*
X959351Y203501D02*
X964683D01*
X967348Y206167D01*
Y211499D01*
X964683Y214164D01*
X959351D01*
X956685Y211499D01*
Y206167D01*
X959351Y203501D01*
X972680D02*
X980677D01*
X983343Y206167D01*
X980677Y208833D01*
X975346D01*
X972680Y211499D01*
X975346Y214164D01*
X983343D01*
X988675Y203501D02*
X994006D01*
X991341D01*
Y214164D01*
X988675D01*
X1004670Y216830D02*
Y214164D01*
X1002004D01*
X1007335D01*
X1004670D01*
Y206167D01*
X1007335Y203501D01*
X1015333D02*
X1020664D01*
X1017999D01*
Y214164D01*
X1015333D01*
X1028662D02*
X1033993Y203501D01*
X1039325Y214164D01*
X1052654Y203501D02*
X1047322D01*
X1044657Y206167D01*
Y211499D01*
X1047322Y214164D01*
X1052654D01*
X1055320Y211499D01*
Y208833D01*
X1044657D01*
X1060651Y203501D02*
X1065983Y208833D01*
Y214164D01*
X1060651Y219496D01*
X756750Y190436D02*
X767413Y179773D01*
X756750D02*
X767413Y190436D01*
X756750Y185105D02*
X767413D01*
X762082Y179773D02*
Y190436D01*
X772745Y177107D02*
Y179773D01*
X775411D01*
Y177107D01*
X772745D01*
X796737Y190436D02*
X794071Y193102D01*
X788740D01*
X786074Y190436D01*
Y179773D01*
X788740Y177107D01*
X794071D01*
X796737Y179773D01*
Y185105D01*
X791405D01*
X802069Y193102D02*
Y177107D01*
X810066D01*
X812732Y179773D01*
Y182439D01*
X810066Y185105D01*
X802069D01*
X810066D01*
X812732Y187771D01*
Y190436D01*
X810066Y193102D01*
X802069D01*
X818063D02*
Y177107D01*
X828727D01*
X850053Y185105D02*
X860716D01*
X882043Y193102D02*
Y177107D01*
X892706D01*
X908701D02*
X898037D01*
X908701Y187771D01*
Y190436D01*
X906035Y193102D01*
X900703D01*
X898037Y190436D01*
X935359Y177107D02*
X930027Y182439D01*
Y187771D01*
X935359Y193102D01*
X943356Y177107D02*
Y193102D01*
X951354D01*
X954019Y190436D01*
Y185105D01*
X951354Y182439D01*
X943356D01*
X962017Y177107D02*
X967348D01*
X970014Y179773D01*
Y185105D01*
X967348Y187771D01*
X962017D01*
X959351Y185105D01*
Y179773D01*
X962017Y177107D01*
X975346D02*
X983343D01*
X986009Y179773D01*
X983343Y182439D01*
X978012D01*
X975346Y185105D01*
X978012Y187771D01*
X986009D01*
X991341Y177107D02*
X996672D01*
X994006D01*
Y187771D01*
X991341D01*
X1007335Y190436D02*
Y187771D01*
X1004670D01*
X1010001D01*
X1007335D01*
Y179773D01*
X1010001Y177107D01*
X1017999D02*
X1023330D01*
X1020664D01*
Y187771D01*
X1017999D01*
X1031328D02*
X1036659Y177107D01*
X1041991Y187771D01*
X1055320Y177107D02*
X1049988D01*
X1047322Y179773D01*
Y185105D01*
X1049988Y187771D01*
X1055320D01*
X1057986Y185105D01*
Y182439D01*
X1047322D01*
X1063317Y177107D02*
X1068649Y182439D01*
Y187771D01*
X1063317Y193102D01*
X756750Y164043D02*
X767413Y153379D01*
X756750D02*
X767413Y164043D01*
X756750Y158711D02*
X767413D01*
X762082Y153379D02*
Y164043D01*
X772745Y150714D02*
Y153379D01*
X775411D01*
Y150714D01*
X772745D01*
X796737Y164043D02*
X794071Y166708D01*
X788740D01*
X786074Y164043D01*
Y153379D01*
X788740Y150714D01*
X794071D01*
X796737Y153379D01*
Y158711D01*
X791405D01*
X802069Y166708D02*
Y150714D01*
X810066D01*
X812732Y153379D01*
Y156045D01*
X810066Y158711D01*
X802069D01*
X810066D01*
X812732Y161377D01*
Y164043D01*
X810066Y166708D01*
X802069D01*
X828727Y164043D02*
X826061Y166708D01*
X820729D01*
X818063Y164043D01*
Y161377D01*
X820729Y158711D01*
X826061D01*
X828727Y156045D01*
Y153379D01*
X826061Y150714D01*
X820729D01*
X818063Y153379D01*
X850053Y158711D02*
X860716D01*
X882043Y166708D02*
Y150714D01*
X890040D01*
X892706Y153379D01*
Y156045D01*
X890040Y158711D01*
X882043D01*
X890040D01*
X892706Y161377D01*
Y164043D01*
X890040Y166708D01*
X882043D01*
X900703Y150714D02*
X906035D01*
X908701Y153379D01*
Y158711D01*
X906035Y161377D01*
X900703D01*
X898037Y158711D01*
Y153379D01*
X900703Y150714D01*
X916698Y164043D02*
Y161377D01*
X914032D01*
X919364D01*
X916698D01*
Y153379D01*
X919364Y150714D01*
X930027Y164043D02*
Y161377D01*
X927361D01*
X932693D01*
X930027D01*
Y153379D01*
X932693Y150714D01*
X943356D02*
X948688D01*
X951354Y153379D01*
Y158711D01*
X948688Y161377D01*
X943356D01*
X940690Y158711D01*
Y153379D01*
X943356Y150714D01*
X956685D02*
Y161377D01*
X959351D01*
X962017Y158711D01*
Y150714D01*
Y158711D01*
X964683Y161377D01*
X967348Y158711D01*
Y150714D01*
X999338Y164043D02*
X996672Y166708D01*
X991341D01*
X988675Y164043D01*
Y161377D01*
X991341Y158711D01*
X996672D01*
X999338Y156045D01*
Y153379D01*
X996672Y150714D01*
X991341D01*
X988675Y153379D01*
X1007335Y150714D02*
X1012667D01*
X1015333Y153379D01*
Y158711D01*
X1012667Y161377D01*
X1007335D01*
X1004670Y158711D01*
Y153379D01*
X1007335Y150714D01*
X1020664D02*
X1025996D01*
X1023330D01*
Y166708D01*
X1020664D01*
X1044657D02*
Y150714D01*
X1036659D01*
X1033993Y153379D01*
Y158711D01*
X1036659Y161377D01*
X1044657D01*
X1057986Y150714D02*
X1052654D01*
X1049988Y153379D01*
Y158711D01*
X1052654Y161377D01*
X1057986D01*
X1060651Y158711D01*
Y156045D01*
X1049988D01*
X1065983Y161377D02*
Y150714D01*
Y156045D01*
X1068649Y158711D01*
X1071315Y161377D01*
X1073980D01*
X756750Y137649D02*
X767413Y126986D01*
X756750D02*
X767413Y137649D01*
X756750Y132317D02*
X767413D01*
X762082Y126986D02*
Y137649D01*
X772745Y124320D02*
Y126986D01*
X775411D01*
Y124320D01*
X772745D01*
X796737Y137649D02*
X794071Y140315D01*
X788740D01*
X786074Y137649D01*
Y126986D01*
X788740Y124320D01*
X794071D01*
X796737Y126986D01*
Y132317D01*
X791405D01*
X802069Y140315D02*
Y124320D01*
X810066D01*
X812732Y126986D01*
Y129651D01*
X810066Y132317D01*
X802069D01*
X810066D01*
X812732Y134983D01*
Y137649D01*
X810066Y140315D01*
X802069D01*
X826061D02*
X820729D01*
X818063Y137649D01*
Y126986D01*
X820729Y124320D01*
X826061D01*
X828727Y126986D01*
Y137649D01*
X826061Y140315D01*
X850053Y132317D02*
X860716D01*
X882043Y140315D02*
Y124320D01*
X890040D01*
X892706Y126986D01*
Y129651D01*
X890040Y132317D01*
X882043D01*
X890040D01*
X892706Y134983D01*
Y137649D01*
X890040Y140315D01*
X882043D01*
X900703Y124320D02*
X906035D01*
X908701Y126986D01*
Y132317D01*
X906035Y134983D01*
X900703D01*
X898037Y132317D01*
Y126986D01*
X900703Y124320D01*
X916698Y137649D02*
Y134983D01*
X914032D01*
X919364D01*
X916698D01*
Y126986D01*
X919364Y124320D01*
X930027Y137649D02*
Y134983D01*
X927361D01*
X932693D01*
X930027D01*
Y126986D01*
X932693Y124320D01*
X943356D02*
X948688D01*
X951354Y126986D01*
Y132317D01*
X948688Y134983D01*
X943356D01*
X940690Y132317D01*
Y126986D01*
X943356Y124320D01*
X956685D02*
Y134983D01*
X959351D01*
X962017Y132317D01*
Y124320D01*
Y132317D01*
X964683Y134983D01*
X967348Y132317D01*
Y124320D01*
X996672Y140315D02*
X991341D01*
X988675Y137649D01*
Y126986D01*
X991341Y124320D01*
X996672D01*
X999338Y126986D01*
Y137649D01*
X996672Y140315D01*
X1004670Y134983D02*
X1010001Y124320D01*
X1015333Y134983D01*
X1028662Y124320D02*
X1023330D01*
X1020664Y126986D01*
Y132317D01*
X1023330Y134983D01*
X1028662D01*
X1031328Y132317D01*
Y129651D01*
X1020664D01*
X1036659Y134983D02*
Y124320D01*
Y129651D01*
X1039325Y132317D01*
X1041991Y134983D01*
X1044657D01*
X1052654Y124320D02*
X1057986D01*
X1055320D01*
Y140315D01*
X1052654D01*
X1068649Y134983D02*
X1073980D01*
X1076646Y132317D01*
Y124320D01*
X1068649D01*
X1065983Y126986D01*
X1068649Y129651D01*
X1076646D01*
X1081978Y134983D02*
Y126986D01*
X1084644Y124320D01*
X1092641D01*
Y121654D01*
X1089975Y118988D01*
X1087309D01*
X1092641Y124320D02*
Y134983D01*
X756750Y105924D02*
X767413Y95260D01*
X756750D02*
X767413Y105924D01*
X756750Y100592D02*
X767413D01*
X762082Y95260D02*
Y105924D01*
X772745Y92594D02*
Y95260D01*
X775411D01*
Y92594D01*
X772745D01*
X796737Y105924D02*
X794071Y108589D01*
X788740D01*
X786074Y105924D01*
Y95260D01*
X788740Y92594D01*
X794071D01*
X796737Y95260D01*
Y100592D01*
X791405D01*
X802069Y92594D02*
Y108589D01*
X807400Y103258D01*
X812732Y108589D01*
Y92594D01*
X818063Y105924D02*
X820729Y108589D01*
X826061D01*
X828727Y105924D01*
Y103258D01*
X826061Y100592D01*
X823395D01*
X826061D01*
X828727Y97926D01*
Y95260D01*
X826061Y92594D01*
X820729D01*
X818063Y95260D01*
X850053Y100592D02*
X860716D01*
X882043Y108589D02*
Y92594D01*
X890040D01*
X892706Y95260D01*
Y97926D01*
X890040Y100592D01*
X882043D01*
X890040D01*
X892706Y103258D01*
Y105924D01*
X890040Y108589D01*
X882043D01*
X900703Y92594D02*
X906035D01*
X908701Y95260D01*
Y100592D01*
X906035Y103258D01*
X900703D01*
X898037Y100592D01*
Y95260D01*
X900703Y92594D01*
X916698Y103258D02*
X922030D01*
X924696Y100592D01*
Y92594D01*
X916698D01*
X914032Y95260D01*
X916698Y97926D01*
X924696D01*
X930027Y103258D02*
Y92594D01*
Y97926D01*
X932693Y100592D01*
X935359Y103258D01*
X938025D01*
X956685Y108589D02*
Y92594D01*
X948688D01*
X946022Y95260D01*
Y100592D01*
X948688Y103258D01*
X956685D01*
X986009Y108589D02*
X980677D01*
X978012Y105924D01*
Y95260D01*
X980677Y92594D01*
X986009D01*
X988675Y95260D01*
Y105924D01*
X986009Y108589D01*
X994006Y103258D02*
Y95260D01*
X996672Y92594D01*
X1004670D01*
Y103258D01*
X1012667Y105924D02*
Y103258D01*
X1010001D01*
X1015333D01*
X1012667D01*
Y95260D01*
X1015333Y92594D01*
X1023330D02*
X1028662D01*
X1025996D01*
Y108589D01*
X1023330D01*
X1036659Y92594D02*
X1041991D01*
X1039325D01*
Y103258D01*
X1036659D01*
X1049988Y92594D02*
Y103258D01*
X1057986D01*
X1060651Y100592D01*
Y92594D01*
X1073980D02*
X1068649D01*
X1065983Y95260D01*
Y100592D01*
X1068649Y103258D01*
X1073980D01*
X1076646Y100592D01*
Y97926D01*
X1065983D01*
X756750Y79530D02*
X767413Y68867D01*
X756750D02*
X767413Y79530D01*
X756750Y74198D02*
X767413D01*
X762082Y68867D02*
Y79530D01*
X772745Y66201D02*
Y68867D01*
X775411D01*
Y66201D01*
X772745D01*
X796737Y79530D02*
X794071Y82196D01*
X788740D01*
X786074Y79530D01*
Y68867D01*
X788740Y66201D01*
X794071D01*
X796737Y68867D01*
Y74198D01*
X791405D01*
X802069Y66201D02*
Y82196D01*
X807400Y76864D01*
X812732Y82196D01*
Y66201D01*
X828727Y82196D02*
X818063D01*
Y74198D01*
X823395Y76864D01*
X826061D01*
X828727Y74198D01*
Y68867D01*
X826061Y66201D01*
X820729D01*
X818063Y68867D01*
X850053Y74198D02*
X860716D01*
X882043Y66201D02*
Y82196D01*
X887374Y76864D01*
X892706Y82196D01*
Y66201D01*
X906035D02*
X900703D01*
X898037Y68867D01*
Y74198D01*
X900703Y76864D01*
X906035D01*
X908701Y74198D01*
Y71532D01*
X898037D01*
X924696Y76864D02*
X916698D01*
X914032Y74198D01*
Y68867D01*
X916698Y66201D01*
X924696D01*
X930027Y82196D02*
Y66201D01*
Y74198D01*
X932693Y76864D01*
X938025D01*
X940690Y74198D01*
Y66201D01*
X948688Y76864D02*
X954019D01*
X956685Y74198D01*
Y66201D01*
X948688D01*
X946022Y68867D01*
X948688Y71532D01*
X956685D01*
X962017Y66201D02*
Y76864D01*
X970014D01*
X972680Y74198D01*
Y66201D01*
X978012D02*
X983343D01*
X980677D01*
Y76864D01*
X978012D01*
X1002004D02*
X994006D01*
X991341Y74198D01*
Y68867D01*
X994006Y66201D01*
X1002004D01*
X1010001Y76864D02*
X1015333D01*
X1017999Y74198D01*
Y66201D01*
X1010001D01*
X1007335Y68867D01*
X1010001Y71532D01*
X1017999D01*
X1023330Y66201D02*
X1028662D01*
X1025996D01*
Y82196D01*
X1023330D01*
X1052654D02*
Y66201D01*
X1060651D01*
X1063317Y68867D01*
Y79530D01*
X1060651Y82196D01*
X1052654D01*
X1068649Y76864D02*
Y66201D01*
Y71532D01*
X1071315Y74198D01*
X1073980Y76864D01*
X1076646D01*
X1087309D02*
X1092641D01*
X1095307Y74198D01*
Y66201D01*
X1087309D01*
X1084644Y68867D01*
X1087309Y71532D01*
X1095307D01*
X1100638Y76864D02*
Y68867D01*
X1103304Y66201D01*
X1105970Y68867D01*
X1108636Y66201D01*
X1111302Y68867D01*
Y76864D01*
X1116633Y66201D02*
X1121965D01*
X1119299D01*
Y76864D01*
X1116633D01*
X1129962Y66201D02*
Y76864D01*
X1137960D01*
X1140626Y74198D01*
Y66201D01*
X1151289Y60869D02*
X1153954D01*
X1156620Y63535D01*
Y76864D01*
X1148623D01*
X1145957Y74198D01*
Y68867D01*
X1148623Y66201D01*
X1156620D01*
X756750Y47804D02*
X767413Y37141D01*
X756750D02*
X767413Y47804D01*
X756750Y42473D02*
X767413D01*
X762082Y37141D02*
Y47804D01*
X772745Y34475D02*
Y37141D01*
X775411D01*
Y34475D01*
X772745D01*
X796737Y47804D02*
X794071Y50470D01*
X788740D01*
X786074Y47804D01*
Y37141D01*
X788740Y34475D01*
X794071D01*
X796737Y37141D01*
Y42473D01*
X791405D01*
X802069Y34475D02*
Y50470D01*
X807400Y45139D01*
X812732Y50470D01*
Y34475D01*
X828727Y50470D02*
X823395Y47804D01*
X818063Y42473D01*
Y37141D01*
X820729Y34475D01*
X826061D01*
X828727Y37141D01*
Y39807D01*
X826061Y42473D01*
X818063D01*
X850053D02*
X860716D01*
X882043Y34475D02*
Y50470D01*
X887374Y45139D01*
X892706Y50470D01*
Y34475D01*
X900703Y45139D02*
X906035D01*
X908701Y42473D01*
Y34475D01*
X900703D01*
X898037Y37141D01*
X900703Y39807D01*
X908701D01*
X914032Y34475D02*
Y45139D01*
X922030D01*
X924696Y42473D01*
Y34475D01*
X930027Y45139D02*
Y37141D01*
X932693Y34475D01*
X940690D01*
Y45139D01*
X948688Y34475D02*
Y47804D01*
Y42473D01*
X946022D01*
X951354D01*
X948688D01*
Y47804D01*
X951354Y50470D01*
X962017Y45139D02*
X967348D01*
X970014Y42473D01*
Y34475D01*
X962017D01*
X959351Y37141D01*
X962017Y39807D01*
X970014D01*
X986009Y45139D02*
X978012D01*
X975346Y42473D01*
Y37141D01*
X978012Y34475D01*
X986009D01*
X994006Y47804D02*
Y45139D01*
X991341D01*
X996672D01*
X994006D01*
Y37141D01*
X996672Y34475D01*
X1004670Y45139D02*
Y37141D01*
X1007335Y34475D01*
X1015333D01*
Y45139D01*
X1020664D02*
Y34475D01*
Y39807D01*
X1023330Y42473D01*
X1025996Y45139D01*
X1028662D01*
X1036659Y34475D02*
X1041991D01*
X1039325D01*
Y45139D01*
X1036659D01*
X1049988Y34475D02*
Y45139D01*
X1057986D01*
X1060651Y42473D01*
Y34475D01*
X1071315Y29144D02*
X1073980D01*
X1076646Y31809D01*
Y45139D01*
X1068649D01*
X1065983Y42473D01*
Y37141D01*
X1068649Y34475D01*
X1076646D01*
X1097973D02*
Y50470D01*
X1108636Y34475D01*
Y50470D01*
X1116633Y34475D02*
X1121965D01*
X1124631Y37141D01*
Y42473D01*
X1121965Y45139D01*
X1116633D01*
X1113967Y42473D01*
Y37141D01*
X1116633Y34475D01*
X1132628Y47804D02*
Y45139D01*
X1129962D01*
X1135294D01*
X1132628D01*
Y37141D01*
X1135294Y34475D01*
X1151289D02*
X1145957D01*
X1143291Y37141D01*
Y42473D01*
X1145957Y45139D01*
X1151289D01*
X1153954Y42473D01*
Y39807D01*
X1143291D01*
X1159286Y34475D02*
X1167283D01*
X1169949Y37141D01*
X1167283Y39807D01*
X1161952D01*
X1159286Y42473D01*
X1161952Y45139D01*
X1169949D01*
X756750Y16079D02*
X767413Y5416D01*
X756750D02*
X767413Y16079D01*
X756750Y10747D02*
X767413D01*
X762082Y5416D02*
Y16079D01*
X772745Y2750D02*
Y5416D01*
X775411D01*
Y2750D01*
X772745D01*
X796737Y16079D02*
X794071Y18745D01*
X788740D01*
X786074Y16079D01*
Y5416D01*
X788740Y2750D01*
X794071D01*
X796737Y5416D01*
Y10747D01*
X791405D01*
X802069Y2750D02*
Y18745D01*
X807400Y13413D01*
X812732Y18745D01*
Y2750D01*
X818063Y18745D02*
X828727D01*
Y16079D01*
X818063Y5416D01*
Y2750D01*
X850053Y10747D02*
X860716D01*
X882043Y18745D02*
Y2750D01*
X892706D01*
X898037D02*
X903369D01*
X900703D01*
Y13413D01*
X898037D01*
X922030D02*
X914032D01*
X911367Y10747D01*
Y5416D01*
X914032Y2750D01*
X922030D01*
X935359D02*
X930027D01*
X927361Y5416D01*
Y10747D01*
X930027Y13413D01*
X935359D01*
X938025Y10747D01*
Y8082D01*
X927361D01*
X943356Y2750D02*
Y13413D01*
X951354D01*
X954019Y10747D01*
Y2750D01*
X959351D02*
X967348D01*
X970014Y5416D01*
X967348Y8082D01*
X962017D01*
X959351Y10747D01*
X962017Y13413D01*
X970014D01*
X983343Y2750D02*
X978012D01*
X975346Y5416D01*
Y10747D01*
X978012Y13413D01*
X983343D01*
X986009Y10747D01*
Y8082D01*
X975346D01*
X2000Y1034655D02*
Y1018660D01*
X9997D01*
X12663Y1021326D01*
Y1023992D01*
X9997Y1026658D01*
X2000D01*
X9997D01*
X12663Y1029324D01*
Y1031989D01*
X9997Y1034655D01*
X2000D01*
X20661Y1018660D02*
X25992D01*
X28658Y1021326D01*
Y1026658D01*
X25992Y1029324D01*
X20661D01*
X17995Y1026658D01*
Y1021326D01*
X20661Y1018660D01*
X36655Y1029324D02*
X41987D01*
X44653Y1026658D01*
Y1018660D01*
X36655D01*
X33990Y1021326D01*
X36655Y1023992D01*
X44653D01*
X49984Y1029324D02*
Y1018660D01*
Y1023992D01*
X52650Y1026658D01*
X55316Y1029324D01*
X57982D01*
X76642Y1034655D02*
Y1018660D01*
X68645D01*
X65979Y1021326D01*
Y1026658D01*
X68645Y1029324D01*
X76642D01*
X97969Y1034655D02*
X103301D01*
X100635D01*
Y1018660D01*
X97969D01*
X103301D01*
X111298D02*
Y1029324D01*
X119295D01*
X121961Y1026658D01*
Y1018660D01*
X129958D02*
Y1031989D01*
Y1026658D01*
X127293D01*
X132624D01*
X129958D01*
Y1031989D01*
X132624Y1034655D01*
X143287Y1018660D02*
X148619D01*
X151285Y1021326D01*
Y1026658D01*
X148619Y1029324D01*
X143287D01*
X140622Y1026658D01*
Y1021326D01*
X143287Y1018660D01*
X2000Y992266D02*
Y1008261D01*
X7332Y1002930D01*
X12663Y1008261D01*
Y992266D01*
X17995D02*
X23326D01*
X20661D01*
Y1002930D01*
X17995D01*
X31324Y992266D02*
Y1002930D01*
X39321D01*
X41987Y1000264D01*
Y992266D01*
X47319D02*
X52650D01*
X49984D01*
Y1002930D01*
X47319D01*
X60648Y992266D02*
Y1002930D01*
X63313D01*
X65979Y1000264D01*
Y992266D01*
Y1000264D01*
X68645Y1002930D01*
X71311Y1000264D01*
Y992266D01*
X76642Y1002930D02*
Y994932D01*
X79308Y992266D01*
X87306D01*
Y1002930D01*
X92637Y992266D02*
Y1002930D01*
X95303D01*
X97969Y1000264D01*
Y992266D01*
Y1000264D01*
X100635Y1002930D01*
X103301Y1000264D01*
Y992266D01*
X124627Y1008261D02*
X135290D01*
X129958D01*
Y992266D01*
X140622Y1002930D02*
Y992266D01*
Y997598D01*
X143287Y1000264D01*
X145953Y1002930D01*
X148619D01*
X159282D02*
X164614D01*
X167280Y1000264D01*
Y992266D01*
X159282D01*
X156616Y994932D01*
X159282Y997598D01*
X167280D01*
X183274Y1002930D02*
X175277D01*
X172611Y1000264D01*
Y994932D01*
X175277Y992266D01*
X183274D01*
X188606D02*
Y1008261D01*
Y997598D02*
X196604Y1002930D01*
X188606Y997598D02*
X196604Y992266D01*
X204601Y1002930D02*
X207267D01*
Y1000264D01*
X204601D01*
Y1002930D01*
Y994932D02*
X207267D01*
Y992266D01*
X204601D01*
Y994932D01*
X244588Y992266D02*
X233925D01*
X244588Y1002930D01*
Y1005595D01*
X241922Y1008261D01*
X236591D01*
X233925Y1005595D01*
X249920D02*
X252585Y1008261D01*
X257917D01*
X260583Y1005595D01*
Y994932D01*
X257917Y992266D01*
X252585D01*
X249920Y994932D01*
Y1005595D01*
X265914D02*
X268580Y1008261D01*
X273912D01*
X276578Y1005595D01*
Y994932D01*
X273912Y992266D01*
X268580D01*
X265914Y994932D01*
Y1005595D01*
X281909Y1002930D02*
Y994932D01*
X284575Y992266D01*
X292572D01*
Y1002930D01*
X297904Y992266D02*
Y1002930D01*
X300570D01*
X303236Y1000264D01*
Y992266D01*
Y1000264D01*
X305901Y1002930D01*
X308567Y1000264D01*
Y992266D01*
X2000Y965873D02*
Y981868D01*
X7332Y976536D01*
X12663Y981868D01*
Y965873D01*
X17995D02*
X23326D01*
X20661D01*
Y976536D01*
X17995D01*
X31324Y965873D02*
Y976536D01*
X39321D01*
X41987Y973870D01*
Y965873D01*
X47319D02*
X52650D01*
X49984D01*
Y976536D01*
X47319D01*
X60648Y965873D02*
Y976536D01*
X63313D01*
X65979Y973870D01*
Y965873D01*
Y973870D01*
X68645Y976536D01*
X71311Y973870D01*
Y965873D01*
X76642Y976536D02*
Y968539D01*
X79308Y965873D01*
X87306D01*
Y976536D01*
X92637Y965873D02*
Y976536D01*
X95303D01*
X97969Y973870D01*
Y965873D01*
Y973870D01*
X100635Y976536D01*
X103301Y973870D01*
Y965873D01*
X135290Y979202D02*
X132624Y981868D01*
X127293D01*
X124627Y979202D01*
Y968539D01*
X127293Y965873D01*
X132624D01*
X135290Y968539D01*
Y973870D01*
X129958D01*
X143287Y976536D02*
X148619D01*
X151285Y973870D01*
Y965873D01*
X143287D01*
X140622Y968539D01*
X143287Y971204D01*
X151285D01*
X156616Y960541D02*
Y976536D01*
X164614D01*
X167280Y973870D01*
Y968539D01*
X164614Y965873D01*
X156616D01*
X172611Y976536D02*
X175277D01*
Y973870D01*
X172611D01*
Y976536D01*
Y968539D02*
X175277D01*
Y965873D01*
X172611D01*
Y968539D01*
X212598Y965873D02*
X201935D01*
X212598Y976536D01*
Y979202D01*
X209932Y981868D01*
X204601D01*
X201935Y979202D01*
X217930D02*
X220596Y981868D01*
X225927D01*
X228593Y979202D01*
Y968539D01*
X225927Y965873D01*
X220596D01*
X217930Y968539D01*
Y979202D01*
X233925D02*
X236591Y981868D01*
X241922D01*
X244588Y979202D01*
Y968539D01*
X241922Y965873D01*
X236591D01*
X233925Y968539D01*
Y979202D01*
X249920Y976536D02*
Y968539D01*
X252585Y965873D01*
X260583D01*
Y976536D01*
X265914Y965873D02*
Y976536D01*
X268580D01*
X271246Y973870D01*
Y965873D01*
Y973870D01*
X273912Y976536D01*
X276578Y973870D01*
Y965873D01*
X2000Y934147D02*
Y950142D01*
X7332Y944811D01*
X12663Y950142D01*
Y934147D01*
X17995D02*
X23326D01*
X20661D01*
Y944811D01*
X17995D01*
X31324Y934147D02*
Y944811D01*
X39321D01*
X41987Y942145D01*
Y934147D01*
X47319D02*
X52650D01*
X49984D01*
Y944811D01*
X47319D01*
X60648Y934147D02*
Y944811D01*
X63313D01*
X65979Y942145D01*
Y934147D01*
Y942145D01*
X68645Y944811D01*
X71311Y942145D01*
Y934147D01*
X76642Y944811D02*
Y936813D01*
X79308Y934147D01*
X87306D01*
Y944811D01*
X92637Y934147D02*
Y944811D01*
X95303D01*
X97969Y942145D01*
Y934147D01*
Y942145D01*
X100635Y944811D01*
X103301Y942145D01*
Y934147D01*
X124627Y950142D02*
X135290D01*
X129958D01*
Y934147D01*
X140622Y950142D02*
Y934147D01*
Y942145D01*
X143287Y944811D01*
X148619D01*
X151285Y942145D01*
Y934147D01*
X156616Y944811D02*
Y934147D01*
Y939479D01*
X159282Y942145D01*
X161948Y944811D01*
X164614D01*
X175277Y934147D02*
X180609D01*
X183274Y936813D01*
Y942145D01*
X180609Y944811D01*
X175277D01*
X172611Y942145D01*
Y936813D01*
X175277Y934147D01*
X188606Y944811D02*
Y936813D01*
X191272Y934147D01*
X199269D01*
Y944811D01*
X209932Y928816D02*
X212598D01*
X215264Y931482D01*
Y944811D01*
X207267D01*
X204601Y942145D01*
Y936813D01*
X207267Y934147D01*
X215264D01*
X220596Y950142D02*
Y934147D01*
Y942145D01*
X223262Y944811D01*
X228593D01*
X231259Y942145D01*
Y934147D01*
X252585Y950142D02*
Y934147D01*
Y942145D01*
X263249D01*
Y950142D01*
Y934147D01*
X271246D02*
X276578D01*
X279243Y936813D01*
Y942145D01*
X276578Y944811D01*
X271246D01*
X268580Y942145D01*
Y936813D01*
X271246Y934147D01*
X284575D02*
X289907D01*
X287241D01*
Y950142D01*
X284575D01*
X305901Y934147D02*
X300570D01*
X297904Y936813D01*
Y942145D01*
X300570Y944811D01*
X305901D01*
X308567Y942145D01*
Y939479D01*
X297904D01*
X329894Y950142D02*
Y939479D01*
X335225Y934147D01*
X340557Y939479D01*
Y950142D01*
X345888D02*
X351220D01*
X348554D01*
Y934147D01*
X345888D01*
X351220D01*
X359217D02*
Y944811D01*
X364549Y950142D01*
X369881Y944811D01*
Y934147D01*
Y942145D01*
X359217D01*
X375212Y944811D02*
X377878D01*
Y942145D01*
X375212D01*
Y944811D01*
Y936813D02*
X377878D01*
Y934147D01*
X375212D01*
Y936813D01*
X404536Y947476D02*
X407202Y950142D01*
X412533D01*
X415199Y947476D01*
Y936813D01*
X412533Y934147D01*
X407202D01*
X404536Y936813D01*
Y947476D01*
X420531Y934147D02*
Y936813D01*
X423197D01*
Y934147D01*
X420531D01*
X444523Y950142D02*
X439192Y947476D01*
X433860Y942145D01*
Y936813D01*
X436526Y934147D01*
X441857D01*
X444523Y936813D01*
Y939479D01*
X441857Y942145D01*
X433860D01*
X449855Y934147D02*
Y944811D01*
X452520D01*
X455186Y942145D01*
Y934147D01*
Y942145D01*
X457852Y944811D01*
X460518Y942145D01*
Y934147D01*
X465849D02*
Y944811D01*
X468515D01*
X471181Y942145D01*
Y934147D01*
Y942145D01*
X473847Y944811D01*
X476513Y942145D01*
Y934147D01*
X503171D02*
X497839Y939479D01*
Y944811D01*
X503171Y950142D01*
X511168Y928816D02*
Y944811D01*
X519166D01*
X521831Y942145D01*
Y936813D01*
X519166Y934147D01*
X511168D01*
X529829Y944811D02*
X535160D01*
X537826Y942145D01*
Y934147D01*
X529829D01*
X527163Y936813D01*
X529829Y939479D01*
X537826D01*
X553821Y950142D02*
Y934147D01*
X545824D01*
X543158Y936813D01*
Y942145D01*
X545824Y944811D01*
X553821D01*
X559153Y934147D02*
X564484Y939479D01*
Y944811D01*
X559153Y950142D01*
X588476Y934147D02*
X599140Y944811D01*
X620466Y947476D02*
X623132Y950142D01*
X628463D01*
X631129Y947476D01*
Y936813D01*
X628463Y934147D01*
X623132D01*
X620466Y936813D01*
Y947476D01*
X636461Y934147D02*
Y936813D01*
X639127D01*
Y934147D01*
X636461D01*
X649790Y947476D02*
X652456Y950142D01*
X657787D01*
X660453Y947476D01*
Y944811D01*
X657787Y942145D01*
X655121D01*
X657787D01*
X660453Y939479D01*
Y936813D01*
X657787Y934147D01*
X652456D01*
X649790Y936813D01*
X665785Y934147D02*
Y944811D01*
X668450D01*
X671116Y942145D01*
Y934147D01*
Y942145D01*
X673782Y944811D01*
X676448Y942145D01*
Y934147D01*
X681779D02*
Y944811D01*
X684445D01*
X687111Y942145D01*
Y934147D01*
Y942145D01*
X689777Y944811D01*
X692443Y942145D01*
Y934147D01*
X735096D02*
X729764Y939479D01*
Y944811D01*
X735096Y950142D01*
X753756D02*
Y934147D01*
X745759D01*
X743093Y936813D01*
Y942145D01*
X745759Y944811D01*
X753756D01*
X759088D02*
Y934147D01*
Y939479D01*
X761753Y942145D01*
X764419Y944811D01*
X767085D01*
X775082Y934147D02*
X780414D01*
X777748D01*
Y944811D01*
X775082D01*
X788411Y934147D02*
X793743D01*
X791077D01*
Y950142D01*
X788411D01*
X801740Y934147D02*
X807072D01*
X804406D01*
Y950142D01*
X801740D01*
X815070Y934147D02*
X820401Y939479D01*
Y944811D01*
X815070Y950142D01*
X831064Y931482D02*
X833730Y934147D01*
Y936813D01*
X831064D01*
Y934147D01*
X833730D01*
X831064Y931482D01*
X828399Y928816D01*
X860388Y950142D02*
Y934147D01*
X868386D01*
X871051Y936813D01*
Y947476D01*
X868386Y950142D01*
X860388D01*
X876383Y944811D02*
Y934147D01*
Y939479D01*
X879049Y942145D01*
X881715Y944811D01*
X884380D01*
X892378Y934147D02*
X897709D01*
X895044D01*
Y944811D01*
X892378D01*
X905707Y934147D02*
X911038D01*
X908373D01*
Y950142D01*
X905707D01*
X919036Y934147D02*
X924367D01*
X921702D01*
Y950142D01*
X919036D01*
X932365Y934147D02*
X937696D01*
X935031D01*
Y944811D01*
X932365D01*
X945694Y934147D02*
Y944811D01*
X953691D01*
X956357Y942145D01*
Y934147D01*
X967020Y928816D02*
X969686D01*
X972352Y931482D01*
Y944811D01*
X964354D01*
X961689Y942145D01*
Y936813D01*
X964354Y934147D01*
X972352D01*
X977683Y944811D02*
X980349D01*
Y942145D01*
X977683D01*
Y944811D01*
Y936813D02*
X980349D01*
Y934147D01*
X977683D01*
Y936813D01*
X1007007Y950142D02*
Y934147D01*
X1017671D01*
X1023002D02*
X1028334D01*
X1025668D01*
Y950142D01*
X1023002Y947476D01*
X1036331Y942145D02*
X1046994D01*
X1052326Y950142D02*
Y934147D01*
X1062989D01*
X1078984D02*
X1068321D01*
X1078984Y944811D01*
Y947476D01*
X1076318Y950142D01*
X1070986D01*
X1068321Y947476D01*
X2000Y876028D02*
X7332D01*
X4666D01*
Y892023D01*
X2000Y889357D01*
X15329Y876028D02*
Y878694D01*
X17995D01*
Y876028D01*
X15329D01*
X55316Y892023D02*
X44653D01*
Y884026D01*
X49984D01*
X44653D01*
Y876028D01*
X60648Y892023D02*
X65979D01*
X63313D01*
Y876028D01*
X60648D01*
X65979D01*
X73977D02*
Y892023D01*
X84640Y876028D01*
Y892023D01*
X89971D02*
X95303D01*
X92637D01*
Y876028D01*
X89971D01*
X95303D01*
X113964Y889357D02*
X111298Y892023D01*
X105966D01*
X103301Y889357D01*
Y886692D01*
X105966Y884026D01*
X111298D01*
X113964Y881360D01*
Y878694D01*
X111298Y876028D01*
X105966D01*
X103301Y878694D01*
X119295Y892023D02*
Y876028D01*
Y884026D01*
X129958D01*
Y892023D01*
Y876028D01*
X145953Y892023D02*
X135290D01*
Y876028D01*
X145953D01*
X135290Y884026D02*
X140622D01*
X151285Y892023D02*
Y876028D01*
X159282D01*
X161948Y878694D01*
Y889357D01*
X159282Y892023D01*
X151285D01*
X183274Y876028D02*
Y892023D01*
X191272D01*
X193938Y889357D01*
Y884026D01*
X191272Y881360D01*
X183274D01*
X199269Y876028D02*
Y886692D01*
X204601Y892023D01*
X209932Y886692D01*
Y876028D01*
Y884026D01*
X199269D01*
X215264Y876028D02*
Y892023D01*
X225927Y876028D01*
Y892023D01*
X241922D02*
X231259D01*
Y876028D01*
X241922D01*
X231259Y884026D02*
X236591D01*
X247254Y892023D02*
Y876028D01*
X257917D01*
X295238Y892023D02*
X305901D01*
X300570D01*
Y876028D01*
X311233Y892023D02*
Y876028D01*
Y884026D01*
X321896D01*
Y892023D01*
Y876028D01*
X327228Y892023D02*
X332559D01*
X329894D01*
Y876028D01*
X327228D01*
X332559D01*
X351220Y889357D02*
X348554Y892023D01*
X343223D01*
X340557Y889357D01*
Y878694D01*
X343223Y876028D01*
X348554D01*
X351220Y878694D01*
X356552Y892023D02*
Y876028D01*
Y881360D01*
X367215Y892023D01*
X359217Y884026D01*
X367215Y876028D01*
X372546D02*
Y892023D01*
X383210Y876028D01*
Y892023D01*
X399204D02*
X388541D01*
Y876028D01*
X399204D01*
X388541Y884026D02*
X393873D01*
X415199Y889357D02*
X412533Y892023D01*
X407202D01*
X404536Y889357D01*
Y886692D01*
X407202Y884026D01*
X412533D01*
X415199Y881360D01*
Y878694D01*
X412533Y876028D01*
X407202D01*
X404536Y878694D01*
X431194Y889357D02*
X428528Y892023D01*
X423197D01*
X420531Y889357D01*
Y886692D01*
X423197Y884026D01*
X428528D01*
X431194Y881360D01*
Y878694D01*
X428528Y876028D01*
X423197D01*
X420531Y878694D01*
X452520Y892023D02*
X457852D01*
X455186D01*
Y876028D01*
X452520D01*
X457852D01*
X476513Y889357D02*
X473847Y892023D01*
X468515D01*
X465849Y889357D01*
Y886692D01*
X468515Y884026D01*
X473847D01*
X476513Y881360D01*
Y878694D01*
X473847Y876028D01*
X468515D01*
X465849Y878694D01*
X497839Y876028D02*
Y892023D01*
X508502Y876028D01*
Y892023D01*
X521831D02*
X516500D01*
X513834Y889357D01*
Y878694D01*
X516500Y876028D01*
X521831D01*
X524497Y878694D01*
Y889357D01*
X521831Y892023D01*
X529829D02*
X540492D01*
X535160D01*
Y876028D01*
X588476Y889357D02*
X585811Y892023D01*
X580479D01*
X577813Y889357D01*
Y878694D01*
X580479Y876028D01*
X585811D01*
X588476Y878694D01*
X593808Y876028D02*
Y892023D01*
X601805D01*
X604471Y889357D01*
Y884026D01*
X601805Y881360D01*
X593808D01*
X599140D02*
X604471Y876028D01*
X609803Y892023D02*
X615134D01*
X612469D01*
Y876028D01*
X609803D01*
X615134D01*
X623132Y892023D02*
X633795D01*
X628463D01*
Y876028D01*
X639127Y892023D02*
X644458D01*
X641792D01*
Y876028D01*
X639127D01*
X644458D01*
X663119Y889357D02*
X660453Y892023D01*
X655121D01*
X652456Y889357D01*
Y878694D01*
X655121Y876028D01*
X660453D01*
X663119Y878694D01*
X668450Y876028D02*
Y886692D01*
X673782Y892023D01*
X679114Y886692D01*
Y876028D01*
Y884026D01*
X668450D01*
X684445Y892023D02*
Y876028D01*
X695108D01*
X700440Y886692D02*
X703106D01*
Y884026D01*
X700440D01*
Y886692D01*
Y878694D02*
X703106D01*
Y876028D01*
X700440D01*
Y878694D01*
X729764Y892023D02*
X740427D01*
X735096D01*
Y876028D01*
X753756Y892023D02*
X748425D01*
X745759Y889357D01*
Y878694D01*
X748425Y876028D01*
X753756D01*
X756422Y878694D01*
Y889357D01*
X753756Y892023D01*
X777748D02*
Y876028D01*
X785746D01*
X788412Y878694D01*
Y881360D01*
X785746Y884026D01*
X777748D01*
X785746D01*
X788412Y886692D01*
Y889357D01*
X785746Y892023D01*
X777748D01*
X804406D02*
X793743D01*
Y876028D01*
X804406D01*
X793743Y884026D02*
X799075D01*
X825733Y876028D02*
Y886692D01*
X831064Y892023D01*
X836396Y886692D01*
Y876028D01*
Y884026D01*
X825733D01*
X841728Y876028D02*
Y892023D01*
X849725D01*
X852391Y889357D01*
Y884026D01*
X849725Y881360D01*
X841728D01*
X857722Y876028D02*
Y892023D01*
X865720D01*
X868386Y889357D01*
Y884026D01*
X865720Y881360D01*
X857722D01*
X873717Y876028D02*
Y892023D01*
X881715D01*
X884380Y889357D01*
Y884026D01*
X881715Y881360D01*
X873717D01*
X879049D02*
X884380Y876028D01*
X897709Y892023D02*
X892378D01*
X889712Y889357D01*
Y878694D01*
X892378Y876028D01*
X897709D01*
X900375Y878694D01*
Y889357D01*
X897709Y892023D01*
X905707D02*
X916370Y876028D01*
Y892023D02*
X905707Y876028D01*
X921702Y892023D02*
X927033D01*
X924367D01*
Y876028D01*
X921702D01*
X927033D01*
X935031D02*
Y892023D01*
X940362Y886692D01*
X945694Y892023D01*
Y876028D01*
X951025D02*
Y886692D01*
X956357Y892023D01*
X961689Y886692D01*
Y876028D01*
Y884026D01*
X951025D01*
X967020Y892023D02*
X977683D01*
X972352D01*
Y876028D01*
X993678Y892023D02*
X983015D01*
Y876028D01*
X993678D01*
X983015Y884026D02*
X988347D01*
X999010Y892023D02*
Y876028D01*
X1009673D01*
X1015005Y892023D02*
Y889357D01*
X1020336Y884026D01*
X1025668Y889357D01*
Y892023D01*
X1020336Y884026D02*
Y876028D01*
X1046994D02*
X1052326D01*
X1049660D01*
Y892023D01*
X1046994Y889357D01*
X1060323Y876028D02*
Y878694D01*
X1062989D01*
Y876028D01*
X1060323D01*
X1084316Y892023D02*
X1078984Y889357D01*
X1073652Y884026D01*
Y878694D01*
X1076318Y876028D01*
X1081650D01*
X1084316Y878694D01*
Y881360D01*
X1081650Y884026D01*
X1073652D01*
X1089647Y876028D02*
Y886692D01*
X1092313D01*
X1094979Y884026D01*
Y876028D01*
Y884026D01*
X1097645Y886692D01*
X1100310Y884026D01*
Y876028D01*
X1105642D02*
Y886692D01*
X1108308D01*
X1110974Y884026D01*
Y876028D01*
Y884026D01*
X1113639Y886692D01*
X1116305Y884026D01*
Y876028D01*
X12663Y823241D02*
X2000D01*
X12663Y833904D01*
Y836570D01*
X9997Y839236D01*
X4666D01*
X2000Y836570D01*
X17995Y823241D02*
Y825907D01*
X20661D01*
Y823241D01*
X17995D01*
X47319Y839236D02*
Y823241D01*
X55316D01*
X57982Y825907D01*
Y828572D01*
X55316Y831238D01*
X47319D01*
X55316D01*
X57982Y833904D01*
Y836570D01*
X55316Y839236D01*
X47319D01*
X71311D02*
X65979D01*
X63313Y836570D01*
Y825907D01*
X65979Y823241D01*
X71311D01*
X73977Y825907D01*
Y836570D01*
X71311Y839236D01*
X79308Y823241D02*
Y833904D01*
X84640Y839236D01*
X89972Y833904D01*
Y823241D01*
Y831238D01*
X79308D01*
X95303Y823241D02*
Y839236D01*
X103301D01*
X105966Y836570D01*
Y831238D01*
X103301Y828572D01*
X95303D01*
X100635D02*
X105966Y823241D01*
X111298Y839236D02*
Y823241D01*
X119295D01*
X121961Y825907D01*
Y836570D01*
X119295Y839236D01*
X111298D01*
X153951D02*
X143287D01*
Y831238D01*
X148619D01*
X143287D01*
Y823241D01*
X159282Y839236D02*
X164614D01*
X161948D01*
Y823241D01*
X159282D01*
X164614D01*
X172611D02*
Y839236D01*
X183274Y823241D01*
Y839236D01*
X188606D02*
X193938D01*
X191272D01*
Y823241D01*
X188606D01*
X193938D01*
X212598Y836570D02*
X209932Y839236D01*
X204601D01*
X201935Y836570D01*
Y833904D01*
X204601Y831238D01*
X209932D01*
X212598Y828572D01*
Y825907D01*
X209932Y823241D01*
X204601D01*
X201935Y825907D01*
X217930Y839236D02*
Y823241D01*
Y831238D01*
X228593D01*
Y839236D01*
Y823241D01*
X233925Y833904D02*
X236591D01*
Y831238D01*
X233925D01*
Y833904D01*
Y825907D02*
X236591D01*
Y823241D01*
X233925D01*
Y825907D01*
X263249Y839236D02*
X268580D01*
X265914D01*
Y823241D01*
X263249D01*
X268580D01*
X276578D02*
Y839236D01*
X281909Y833904D01*
X287241Y839236D01*
Y823241D01*
X292572D02*
Y839236D01*
X297904Y833904D01*
X303236Y839236D01*
Y823241D01*
X319230Y839236D02*
X308567D01*
Y823241D01*
X319230D01*
X308567Y831238D02*
X313899D01*
X324562Y823241D02*
Y839236D01*
X332559D01*
X335225Y836570D01*
Y831238D01*
X332559Y828572D01*
X324562D01*
X329894D02*
X335225Y823241D01*
X351220Y836570D02*
X348554Y839236D01*
X343223D01*
X340557Y836570D01*
Y833904D01*
X343223Y831238D01*
X348554D01*
X351220Y828572D01*
Y825907D01*
X348554Y823241D01*
X343223D01*
X340557Y825907D01*
X356552Y839236D02*
X361883D01*
X359217D01*
Y823241D01*
X356552D01*
X361883D01*
X377878Y839236D02*
X372546D01*
X369881Y836570D01*
Y825907D01*
X372546Y823241D01*
X377878D01*
X380544Y825907D01*
Y836570D01*
X377878Y839236D01*
X385876Y823241D02*
Y839236D01*
X396539Y823241D01*
Y839236D01*
X417865Y823241D02*
Y833904D01*
X423197Y839236D01*
X428528Y833904D01*
Y823241D01*
Y831238D01*
X417865D01*
X433860Y833904D02*
Y825907D01*
X436526Y823241D01*
X444523D01*
Y833904D01*
X449855Y823241D02*
X460518Y833904D01*
X476513Y839236D02*
X465849D01*
Y823241D01*
X476513D01*
X465849Y831238D02*
X471181D01*
X481844Y839236D02*
Y823241D01*
X492508D01*
X508502Y839236D02*
X497839D01*
Y823241D01*
X508502D01*
X497839Y831238D02*
X503171D01*
X524497Y836570D02*
X521831Y839236D01*
X516500D01*
X513834Y836570D01*
Y825907D01*
X516500Y823241D01*
X521831D01*
X524497Y825907D01*
X529829Y839236D02*
X540492D01*
X535160D01*
Y823241D01*
X545824D02*
Y839236D01*
X553821D01*
X556487Y836570D01*
Y831238D01*
X553821Y828572D01*
X545824D01*
X551155D02*
X556487Y823241D01*
X569816Y839236D02*
X564484D01*
X561818Y836570D01*
Y825907D01*
X564484Y823241D01*
X569816D01*
X572482Y825907D01*
Y836570D01*
X569816Y839236D01*
X577813D02*
Y823241D01*
X588476D01*
X604471Y839236D02*
X593808D01*
Y823241D01*
X604471D01*
X593808Y831238D02*
X599140D01*
X620466Y836570D02*
X617800Y839236D01*
X612469D01*
X609803Y836570D01*
Y833904D01*
X612469Y831238D01*
X617800D01*
X620466Y828572D01*
Y825907D01*
X617800Y823241D01*
X612469D01*
X609803Y825907D01*
X636461Y836570D02*
X633795Y839236D01*
X628463D01*
X625798Y836570D01*
Y833904D01*
X628463Y831238D01*
X633795D01*
X636461Y828572D01*
Y825907D01*
X633795Y823241D01*
X628463D01*
X625798Y825907D01*
X657787Y823241D02*
Y839236D01*
X668450Y823241D01*
Y839236D01*
X673782Y823241D02*
X679114D01*
X676448D01*
Y833904D01*
X673782D01*
X687111D02*
X689777D01*
Y831238D01*
X687111D01*
Y833904D01*
Y825907D02*
X689777D01*
Y823241D01*
X687111D01*
Y825907D01*
X716435Y836570D02*
X719101Y839236D01*
X724432D01*
X727098Y836570D01*
Y825907D01*
X724432Y823241D01*
X719101D01*
X716435Y825907D01*
Y836570D01*
X732430Y823241D02*
Y825907D01*
X735096D01*
Y823241D01*
X732430D01*
X745759Y836570D02*
X748425Y839236D01*
X753756D01*
X756422Y836570D01*
Y825907D01*
X753756Y823241D01*
X748425D01*
X745759Y825907D01*
Y836570D01*
X772417Y839236D02*
X761753D01*
Y831238D01*
X767085Y833904D01*
X769751D01*
X772417Y831238D01*
Y825907D01*
X769751Y823241D01*
X764419D01*
X761753Y825907D01*
X777748Y831238D02*
X788412D01*
X793743Y836570D02*
X796409Y839236D01*
X801741D01*
X804406Y836570D01*
Y825907D01*
X801741Y823241D01*
X796409D01*
X793743Y825907D01*
Y836570D01*
X809738Y823241D02*
Y825907D01*
X812404D01*
Y823241D01*
X809738D01*
X823067D02*
X828399D01*
X825733D01*
Y839236D01*
X823067Y836570D01*
X847059Y823241D02*
X836396D01*
X847059Y833904D01*
Y836570D01*
X844393Y839236D01*
X839062D01*
X836396Y836570D01*
X852391Y833904D02*
Y825907D01*
X855057Y823241D01*
X863054D01*
Y833904D01*
X868386Y823241D02*
Y833904D01*
X871051D01*
X873717Y831238D01*
Y823241D01*
Y831238D01*
X876383Y833904D01*
X879049Y831238D01*
Y823241D01*
X911038Y836570D02*
X908373Y839236D01*
X903041D01*
X900375Y836570D01*
Y825907D01*
X903041Y823241D01*
X908373D01*
X911038Y825907D01*
Y831238D01*
X905707D01*
X924367Y839236D02*
X919036D01*
X916370Y836570D01*
Y825907D01*
X919036Y823241D01*
X924367D01*
X927033Y825907D01*
Y836570D01*
X924367Y839236D01*
X932365D02*
Y823241D01*
X943028D01*
X948360Y839236D02*
Y823241D01*
X956357D01*
X959023Y825907D01*
Y836570D01*
X956357Y839236D01*
X948360D01*
X964354Y831238D02*
Y833904D01*
X967020D01*
Y831238D01*
X964354D01*
Y825907D02*
X967020D01*
Y823241D01*
X964354Y820575D01*
X967020Y823241D02*
X964354D01*
Y825907D01*
X993678Y836570D02*
X996344Y839236D01*
X1001676D01*
X1004342Y836570D01*
Y833904D01*
X1001676Y831238D01*
X999010D01*
X1001676D01*
X1004342Y828572D01*
Y825907D01*
X1001676Y823241D01*
X996344D01*
X993678Y825907D01*
X1009673Y831238D02*
X1020336D01*
X1036331Y839236D02*
X1031000Y836570D01*
X1025668Y831238D01*
Y825907D01*
X1028334Y823241D01*
X1033665D01*
X1036331Y825907D01*
Y828572D01*
X1033665Y831238D01*
X1025668D01*
X1041663Y833904D02*
Y825907D01*
X1044329Y823241D01*
X1052326D01*
Y833904D01*
X1057657Y823241D02*
Y833904D01*
X1060323D01*
X1062989Y831238D01*
Y823241D01*
Y831238D01*
X1065655Y833904D01*
X1068321Y831238D01*
Y823241D01*
X1089647D02*
Y839236D01*
X1100310Y823241D01*
Y839236D01*
X1105642D02*
X1110974D01*
X1108308D01*
Y823241D01*
X1105642D01*
X1110974D01*
X1129634Y836570D02*
X1126968Y839236D01*
X1121637D01*
X1118971Y836570D01*
Y825907D01*
X1121637Y823241D01*
X1126968D01*
X1129634Y825907D01*
X1134966Y839236D02*
Y823241D01*
Y828572D01*
X1145629Y839236D01*
X1137632Y831238D01*
X1145629Y823241D01*
X1161624Y839236D02*
X1150961D01*
Y823241D01*
X1161624D01*
X1150961Y831238D02*
X1156292D01*
X1166955Y839236D02*
Y823241D01*
X1177619D01*
X2000Y781116D02*
X4666Y783782D01*
X9997D01*
X12663Y781116D01*
Y778451D01*
X9997Y775785D01*
X7332D01*
X9997D01*
X12663Y773119D01*
Y770453D01*
X9997Y767787D01*
X4666D01*
X2000Y770453D01*
X17995Y767787D02*
Y770453D01*
X20661D01*
Y767787D01*
X17995D01*
X73977Y781116D02*
X71311Y783782D01*
X65979D01*
X63313Y781116D01*
Y778451D01*
X65979Y775785D01*
X71311D01*
X73977Y773119D01*
Y770453D01*
X71311Y767787D01*
X65979D01*
X63313Y770453D01*
X87306Y783782D02*
X81974D01*
X79308Y781116D01*
Y770453D01*
X81974Y767787D01*
X87306D01*
X89972Y770453D01*
Y781116D01*
X87306Y783782D01*
X95303D02*
Y767787D01*
X105966D01*
X121961Y783782D02*
X111298D01*
Y767787D01*
X121961D01*
X111298Y775785D02*
X116629D01*
X127293Y767787D02*
Y783782D01*
X135290D01*
X137956Y781116D01*
Y775785D01*
X135290Y773119D01*
X127293D01*
X132624D02*
X137956Y767787D01*
X159282D02*
Y783782D01*
X167280D01*
X169946Y781116D01*
Y775785D01*
X167280Y773119D01*
X159282D01*
X164614D02*
X169946Y767787D01*
X185940Y783782D02*
X175277D01*
Y767787D01*
X185940D01*
X175277Y775785D02*
X180609D01*
X201935Y781116D02*
X199269Y783782D01*
X193938D01*
X191272Y781116D01*
Y778451D01*
X193938Y775785D01*
X199269D01*
X201935Y773119D01*
Y770453D01*
X199269Y767787D01*
X193938D01*
X191272Y770453D01*
X207267Y783782D02*
X212598D01*
X209932D01*
Y767787D01*
X207267D01*
X212598D01*
X231259Y781116D02*
X228593Y783782D01*
X223262D01*
X220596Y781116D01*
Y778451D01*
X223262Y775785D01*
X228593D01*
X231259Y773119D01*
Y770453D01*
X228593Y767787D01*
X223262D01*
X220596Y770453D01*
X236591Y783782D02*
X247254D01*
X241922D01*
Y767787D01*
X252585Y778451D02*
X255251D01*
Y775785D01*
X252585D01*
Y778451D01*
Y770453D02*
X255251D01*
Y767787D01*
X252585D01*
Y770453D01*
X281909Y767787D02*
Y778451D01*
X287241Y783782D01*
X292572Y778451D01*
Y767787D01*
Y775785D01*
X281909D01*
X297904Y767787D02*
Y783782D01*
X305901D01*
X308567Y781116D01*
Y775785D01*
X305901Y773119D01*
X297904D01*
X313899Y767787D02*
Y783782D01*
X321896D01*
X324562Y781116D01*
Y775785D01*
X321896Y773119D01*
X313899D01*
X329894Y783782D02*
Y767787D01*
X340557D01*
X345888Y783782D02*
Y781116D01*
X351220Y775785D01*
X356552Y781116D01*
Y783782D01*
X351220Y775785D02*
Y767787D01*
X377878Y783782D02*
X388541D01*
X383210D01*
Y767787D01*
X401870Y783782D02*
X396539D01*
X393873Y781116D01*
Y770453D01*
X396539Y767787D01*
X401870D01*
X404536Y770453D01*
Y781116D01*
X401870Y783782D01*
X425863D02*
Y767787D01*
X433860D01*
X436526Y770453D01*
Y773119D01*
X433860Y775785D01*
X425863D01*
X433860D01*
X436526Y778451D01*
Y781116D01*
X433860Y783782D01*
X425863D01*
X449855D02*
X444523D01*
X441857Y781116D01*
Y770453D01*
X444523Y767787D01*
X449855D01*
X452520Y770453D01*
Y781116D01*
X449855Y783782D01*
X457852D02*
X468515D01*
X463184D01*
Y767787D01*
X473847Y783782D02*
Y767787D01*
Y775785D01*
X484510D01*
Y783782D01*
Y767787D01*
X516500Y781116D02*
X513834Y783782D01*
X508502D01*
X505837Y781116D01*
Y778451D01*
X508502Y775785D01*
X513834D01*
X516500Y773119D01*
Y770453D01*
X513834Y767787D01*
X508502D01*
X505837Y770453D01*
X521831Y783782D02*
X527163D01*
X524497D01*
Y767787D01*
X521831D01*
X527163D01*
X535160Y783782D02*
Y767787D01*
X543158D01*
X545824Y770453D01*
Y781116D01*
X543158Y783782D01*
X535160D01*
X561818D02*
X551155D01*
Y767787D01*
X561818D01*
X551155Y775785D02*
X556487D01*
X577813Y781116D02*
X575147Y783782D01*
X569816D01*
X567150Y781116D01*
Y778451D01*
X569816Y775785D01*
X575147D01*
X577813Y773119D01*
Y770453D01*
X575147Y767787D01*
X569816D01*
X567150Y770453D01*
X609803Y781116D02*
X607137Y783782D01*
X601805D01*
X599140Y781116D01*
Y770453D01*
X601805Y767787D01*
X607137D01*
X609803Y770453D01*
X623132Y783782D02*
X617800D01*
X615134Y781116D01*
Y770453D01*
X617800Y767787D01*
X623132D01*
X625798Y770453D01*
Y781116D01*
X623132Y783782D01*
X631129D02*
Y767787D01*
X641793D01*
X655122Y783782D02*
X649790D01*
X647124Y781116D01*
Y770453D01*
X649790Y767787D01*
X655122D01*
X657787Y770453D01*
Y781116D01*
X655122Y783782D01*
X663119D02*
Y770453D01*
X665785Y767787D01*
X671116D01*
X673782Y770453D01*
Y783782D01*
X679114Y767787D02*
Y783782D01*
X687111D01*
X689777Y781116D01*
Y775785D01*
X687111Y773119D01*
X679114D01*
X684445D02*
X689777Y767787D01*
X711103Y775785D02*
X721767D01*
X743093Y783782D02*
Y767787D01*
X751090D01*
X753756Y770453D01*
Y773119D01*
X751090Y775785D01*
X743093D01*
X751090D01*
X753756Y778451D01*
Y781116D01*
X751090Y783782D01*
X743093D01*
X759088D02*
Y767787D01*
X769751D01*
X775082Y783782D02*
Y770453D01*
X777748Y767787D01*
X783080D01*
X785746Y770453D01*
Y783782D01*
X801741D02*
X791077D01*
Y767787D01*
X801741D01*
X791077Y775785D02*
X796409D01*
X9997Y715000D02*
Y730995D01*
X2000Y722997D01*
X12663D01*
X17995Y715000D02*
Y717666D01*
X20661D01*
Y715000D01*
X17995D01*
X57982Y728329D02*
X55316Y730995D01*
X49984D01*
X47319Y728329D01*
Y717666D01*
X49984Y715000D01*
X55316D01*
X57982Y717666D01*
X71311Y730995D02*
X65979D01*
X63313Y728329D01*
Y717666D01*
X65979Y715000D01*
X71311D01*
X73977Y717666D01*
Y728329D01*
X71311Y730995D01*
X79308Y715000D02*
Y730995D01*
X84640Y725663D01*
X89972Y730995D01*
Y715000D01*
X95303D02*
Y730995D01*
X103301D01*
X105966Y728329D01*
Y722997D01*
X103301Y720332D01*
X95303D01*
X119295Y730995D02*
X113964D01*
X111298Y728329D01*
Y717666D01*
X113964Y715000D01*
X119295D01*
X121961Y717666D01*
Y728329D01*
X119295Y730995D01*
X127293Y715000D02*
Y730995D01*
X137956Y715000D01*
Y730995D01*
X153951D02*
X143287D01*
Y715000D01*
X153951D01*
X143287Y722997D02*
X148619D01*
X159282Y715000D02*
Y730995D01*
X169946Y715000D01*
Y730995D01*
X175277D02*
X185940D01*
X180609D01*
Y715000D01*
X207267Y730995D02*
X212598D01*
X209932D01*
Y715000D01*
X207267D01*
X212598D01*
X220596Y730995D02*
Y715000D01*
X228593D01*
X231259Y717666D01*
Y728329D01*
X228593Y730995D01*
X220596D01*
X247254D02*
X236591D01*
Y715000D01*
X247254D01*
X236591Y722997D02*
X241922D01*
X252585Y715000D02*
Y730995D01*
X263249Y715000D01*
Y730995D01*
X268580D02*
X279243D01*
X273912D01*
Y715000D01*
X284575Y725663D02*
X287241D01*
Y722997D01*
X284575D01*
Y725663D01*
Y717666D02*
X287241D01*
Y715000D01*
X284575D01*
Y717666D01*
X324562Y728329D02*
X321896Y730995D01*
X316565D01*
X313899Y728329D01*
Y717666D01*
X316565Y715000D01*
X321896D01*
X324562Y717666D01*
X337891Y730995D02*
X332559D01*
X329894Y728329D01*
Y717666D01*
X332559Y715000D01*
X337891D01*
X340557Y717666D01*
Y728329D01*
X337891Y730995D01*
X345888D02*
Y715000D01*
X356552D01*
X369881Y730995D02*
X364549D01*
X361883Y728329D01*
Y717666D01*
X364549Y715000D01*
X369881D01*
X372547Y717666D01*
Y728329D01*
X369881Y730995D01*
X377878D02*
Y717666D01*
X380544Y715000D01*
X385876D01*
X388541Y717666D01*
Y730995D01*
X393873Y715000D02*
Y730995D01*
X401870D01*
X404536Y728329D01*
Y722997D01*
X401870Y720332D01*
X393873D01*
X399204D02*
X404536Y715000D01*
X425863Y730995D02*
X436526D01*
X431194D01*
Y715000D01*
X449855Y730995D02*
X444523D01*
X441857Y728329D01*
Y717666D01*
X444523Y715000D01*
X449855D01*
X452520Y717666D01*
Y728329D01*
X449855Y730995D01*
X473847D02*
Y715000D01*
X481844D01*
X484510Y717666D01*
Y720332D01*
X481844Y722997D01*
X473847D01*
X481844D01*
X484510Y725663D01*
Y728329D01*
X481844Y730995D01*
X473847D01*
X500505D02*
X489842D01*
Y715000D01*
X500505D01*
X489842Y722997D02*
X495173D01*
X537826Y730995D02*
Y715000D01*
X543158Y720332D01*
X548489Y715000D01*
Y730995D01*
X553821D02*
Y715000D01*
Y722997D01*
X564484D01*
Y730995D01*
Y715000D01*
X569816Y730995D02*
X575147D01*
X572482D01*
Y715000D01*
X569816D01*
X575147D01*
X583145Y730995D02*
X593808D01*
X588476D01*
Y715000D01*
X609803Y730995D02*
X599140D01*
Y715000D01*
X609803D01*
X599140Y722997D02*
X604471D01*
M02*
